<svg width="400" height="400" viewBox="0 0 400 400" fill="none" xmlns="http://www.w3.org/2000/svg">
<path fill-rule="evenodd" clip-rule="evenodd" d="M232.38 374.818C236.78 370.56 251.44 354.82 256.18 351.14C256.325 350.985 256.522 350.885 256.733 350.86C256.943 350.835 257.157 350.887 257.335 351.003C257.512 351.122 257.642 351.298 257.702 351.502C257.762 351.707 257.747 351.925 257.66 352.12C255.3 356.38 234.72 375.72 233.52 376.858C232.7 377.88 229.18 382.12 228.22 383C228.25 383.796 228.042 384.582 227.622 385.258C227.2 385.938 226.587 386.473 225.86 386.8C223.283 387.676 220.76 388.698 218.3 389.858C217.94 390.178 217.52 389.858 217.62 389.52C218.853 387.975 219.888 386.28 220.7 384.48C220.875 383.287 221.48 382.2 222.402 381.422C223.322 380.647 224.495 380.233 225.7 380.258C225.84 380 231.14 375.64 232.38 374.818ZM225.64 380.578C224.56 380.64 223.537 381.091 222.76 381.844C221.982 382.596 221.498 383.6 221.4 384.68C220.95 386.036 220.273 387.309 219.4 388.44C224.46 386.338 226.18 386.64 227.28 384.938C227.628 384.375 227.847 383.738 227.92 383.08C226.52 382.698 225.54 380.338 225.64 380.578ZM231.98 375.56C230.42 376.978 228.8 378.498 226.42 380.56C226.77 381.255 227.293 381.847 227.94 382.28L233.16 376.698C232.7 376.404 232.305 376.015 232 375.56H231.98ZM223.08 352C225.36 350.5 256.3 330.14 256.6 331.14C256.9 332.14 226.24 355.34 225.98 355.5C224.68 356.98 215.98 366.36 214.84 366.76C213.39 366.705 212.015 366.098 211 365.058C209.61 363.64 208.58 361.903 208 360C207.62 358.64 221.84 352.52 223.08 352ZM208.98 360.9C209.373 362.168 210.087 363.313 211.05 364.226C212.012 365.142 213.193 365.793 214.48 366.12C213.04 364.76 210 361.86 208.98 360.9ZM214.98 356.28C212.785 357.327 210.677 358.552 208.68 359.94C208.94 360.8 208.68 359.94 210.68 361.6C212.303 362.873 213.727 364.382 214.9 366.08C215.9 365.338 219.96 361.3 219.72 361.52C218.222 359.683 216.618 357.933 214.92 356.28H214.98ZM223.16 352.28C219.86 353.82 217.66 354.9 215.16 356.12C217.143 357.387 218.753 359.161 219.82 361.26C221.02 360.06 225.1 355.92 225.7 355.26C225.12 354.7 223.6 352.96 223.1 352.32L223.16 352.28ZM271.62 329.42C272.64 320.46 274.14 309.32 275.36 309.26C276.58 309.2 275.26 320.46 274 329.48C278 329.82 282.76 332.02 282 335.82C282.037 336.497 281.948 337.175 281.74 337.82C283.74 351.4 281.96 354.2 282.1 353.98C280.935 355.383 279.478 356.514 277.83 357.295C276.182 358.075 274.383 358.487 272.56 358.5C270.73 358.51 268.918 358.128 267.245 357.385C265.573 356.64 264.078 355.547 262.86 354.18C261.2 351.68 262.26 341.12 262.58 338.18C262.403 337.561 262.302 336.923 262.28 336.28C262.038 335.228 262.175 334.125 262.665 333.163C263.155 332.202 263.967 331.443 264.96 331.02C267.005 329.923 269.3 329.372 271.62 329.42ZM281.36 346.98C279.78 350.22 275.36 351.24 271.8 351.24C271.752 352.198 271.645 353.154 271.48 354.1C271.32 354.86 271.14 355.52 270.36 355.5C269.235 355.272 268.243 354.612 267.6 353.66C267.08 352.88 267.2 352.48 267.86 350.76C266.993 350.533 266.187 350.122 265.497 349.552C264.805 348.982 264.247 348.268 263.86 347.46C263.868 349.247 264.05 351.028 264.4 352.78C264.822 353.575 265.425 354.26 266.16 354.78C270.68 358.46 276.16 357.42 280.74 353.48C280.94 352 281.22 349.1 281.36 346.98ZM263 338.98C262.86 341.4 262.32 351.62 263.68 353.62C264.727 354.837 266.05 355.783 267.54 356.38C265.978 355.618 264.708 354.368 263.92 352.82C263.577 350.678 263.462 348.507 263.58 346.34C263.453 345.733 263.477 345.105 263.648 344.508C263.818 343.913 264.132 343.368 264.56 342.92C265.98 341.28 266.32 342.22 265.02 341.32C264.17 340.747 263.475 339.97 263 339.06V338.98ZM268.38 350.78C268.138 351.428 267.957 352.098 267.84 352.78C267.84 353.46 269.64 354.98 270.44 354.9C270.72 354.9 270.8 354.48 270.9 353.98C271.078 353.075 271.198 352.16 271.26 351.24C270.288 351.22 269.323 351.093 268.38 350.86V350.78ZM281.5 338.5C280.813 339.767 279.761 340.798 278.48 341.46C280.78 342.18 282.3 343.72 281.68 346.06C281.68 347.32 281.68 348.56 281.56 349.68C281.36 353.86 281.22 353.68 281.42 353.38C282.36 349.82 281.88 342.34 281.5 338.58V338.5ZM278.14 341.64C276.27 342.545 274.218 343.017 272.14 343.02C272.143 344.215 271.988 345.405 271.68 346.56C271.762 347.892 271.762 349.228 271.68 350.56C274.185 350.645 276.662 350.014 278.82 348.74C282 346.74 282.5 343.12 278.14 341.72V341.64ZM269.88 346.64C269.76 346.92 268.76 349.7 268.58 350.2C269.477 350.418 270.397 350.532 271.32 350.54C271.32 349.56 271.52 347.68 271.5 346.7C270.967 346.817 270.417 346.823 269.88 346.72V346.64ZM266.14 342C262.3 344.64 263.92 348.84 268.14 350.12C268.56 349.06 269.22 347.58 269.7 346.56C269.755 345.365 269.888 344.177 270.1 343C268.733 342.895 267.393 342.557 266.14 342ZM270.28 343.02L270.1 346.26C270.44 346.26 271.54 346.42 271.42 346.26C271.3 346.1 271.68 344.38 271.82 343.06C271.3 343.1 270.78 343.08 270.28 343.04V343.02ZM281.16 337.72C277.6 342.18 266.84 342.24 263.16 337.72C263.548 338.722 264.19 339.608 265.02 340.29C265.85 340.973 266.842 341.432 267.9 341.62C272.46 342.86 279.32 341.86 281.16 337.74V337.72ZM273.7 331.56C273.1 335.7 272.58 339.06 272.4 340.16C275.42 340.16 279.46 339.06 280.86 336.62C280.42 333.5 276.86 331.88 273.7 331.58V331.56ZM271.38 331.56C269.728 331.641 268.13 332.165 266.75 333.077C265.372 333.988 264.263 335.253 263.54 336.74C264.82 338.74 268.04 339.84 270.52 340.08C270.62 338.98 270.94 335.66 271.38 331.58V331.56ZM271.58 329.8C269.4 329.88 267.275 330.505 265.4 331.62C263.62 332.76 262.42 334.52 263.4 336.42C264.082 334.845 265.195 333.493 266.61 332.52C268.025 331.547 269.685 330.993 271.4 330.92L271.58 329.8ZM274 330C274 330.34 273.9 330.68 273.84 331.02C277.14 331.32 280.6 333.02 281.14 336.22C281.86 334.4 280.66 332.76 278.98 331.7C277.462 330.781 275.763 330.201 274 330ZM293.16 338.12C292.22 333.46 284.62 298.74 287.16 296.72C288.062 296.223 289.043 295.885 290.06 295.72C292.86 295.12 310.72 292.72 311.54 295.14C312.36 297.56 307.54 334.42 307.18 336.4C307.18 337.74 306.68 341.48 306.68 341.48C306.162 342.565 305.392 343.51 304.437 344.24C303.48 344.97 302.365 345.461 301.182 345.677C300 345.892 298.782 345.821 297.632 345.475C296.48 345.128 295.427 344.513 294.56 343.68C293.892 341.883 293.423 340.018 293.16 338.12ZM310.52 299.58C302.862 299.681 295.22 300.35 287.66 301.58C288.28 309.98 291.92 329.58 293.5 337.94C295.582 339.078 297.955 339.573 300.318 339.363C302.683 339.153 304.932 338.248 306.78 336.76C307 335.06 310.36 301.82 310.52 299.58ZM308.72 311.18C308.72 311.18 308.84 309.82 307.16 310.16C305.48 310.5 302.42 313.38 298.66 313.06C294.9 312.74 291.32 310.64 290.2 312.04C289.08 313.44 293.82 317.86 299.96 316.82C307 315.64 308.86 312.74 308.72 311.18ZM288.92 296.98C288.62 296.98 287.8 297.3 287.72 297.56C287.55 298.828 287.55 300.112 287.72 301.38L289.72 301C289.268 299.703 288.998 298.35 288.92 296.98ZM292.38 296.24C291.36 296.42 290.16 296.64 289.18 296.9C289.477 298.22 289.698 299.555 289.84 300.9C290.6 300.76 292.72 300.4 293.34 300.34C293.28 300.2 292.8 298.54 292.38 296.24ZM296.2 295.74C294.94 295.88 293.74 296.04 292.64 296.2C293.13 297.538 293.427 298.938 293.52 300.36L296.88 299.94C296.76 299.28 296.34 297.2 296.2 295.74ZM299.94 295.38C299.26 295.38 297.82 295.54 296.46 295.7C296.882 297.067 297.09 298.49 297.08 299.92L300.68 299.58C300.62 299.24 300.2 297.44 300 295.38H299.94ZM303.94 295.12L300.2 295.36C300.632 296.718 300.86 298.133 300.88 299.56C302.04 299.56 303.32 299.4 304.46 299.36C304.46 299.32 304 295.38 304 295.12H303.94ZM308.78 295.12C308.708 296.521 308.555 297.917 308.32 299.3H310.54C310.54 298.8 310.88 295.44 310.54 295.3C309.96 295.185 309.372 295.132 308.78 295.14V295.12ZM308.52 295.12H304.22C304.607 296.498 304.755 297.932 304.66 299.36H308.14C308.08 297.937 308.208 296.51 308.52 295.12ZM158 322.66C160.62 322.66 162.76 323.62 162.76 324.84C162.76 326.06 160.62 327.02 158 327.02C155.38 327.02 153.26 326.04 153.26 324.84C153.26 323.64 155.3 322.66 158 322.66ZM107.44 311.14C107.44 311.58 106.62 311.98 105.58 312.02C104.54 312.06 103.58 311.72 103.58 311.26C103.62 310.2 107.4 310 107.44 311.14Z" fill="black"/>
<path d="M126.38 361.62C127.661 361.62 128.7 361.002 128.7 360.24C128.7 359.479 127.661 358.86 126.38 358.86C125.099 358.86 124.06 359.479 124.06 360.24C124.06 361.002 125.099 361.62 126.38 361.62Z" fill="black"/>
<path fill-rule="evenodd" clip-rule="evenodd" d="M226.26 294C228.26 294 229.98 294.58 229.98 295.28C229.98 295.98 228.32 296.58 226.26 296.58C224.2 296.58 222.56 296 222.56 295.28C222.56 294.56 224.22 294 226.26 294ZM98.9204 242.94C98.9204 243.44 98.6204 247.22 98.7804 252.74C98.7804 253.48 98.9204 256 98.9204 256C98.9204 256 99.1604 256.14 99.1604 256C99.1604 255.86 99.2804 253.48 99.3004 252.74C99.4204 248.14 99.1604 242.74 99.1604 242.94C99.1604 242.908 99.148 242.879 99.1251 242.855C99.1026 242.834 99.072 242.82 99.0404 242.82C99.0084 242.82 98.9782 242.834 98.9556 242.855C98.9331 242.879 98.9204 242.908 98.9204 242.94ZM182.22 24.4001C184.72 25.0801 189.14 26.5001 190.74 28.5601C190.798 28.6356 190.83 28.7278 190.83 28.8228C190.83 28.9178 190.802 29.0105 190.745 29.0869C190.688 29.1635 190.608 29.2198 190.518 29.2473C190.427 29.2749 190.33 29.2725 190.24 29.2401C182.24 25.9801 169.5 30.1401 161.42 33.5001C158.22 34.8401 177.42 13.1801 191.22 16.5801C191.315 16.6088 191.397 16.6671 191.457 16.7463C191.515 16.8256 191.547 16.9215 191.547 17.0201C191.547 17.1186 191.515 17.2146 191.457 17.2938C191.397 17.3731 191.315 17.4313 191.22 17.4601C188.083 18.1958 185.003 19.1514 182 20.3201C184.3 20.4201 189.6 20.7601 191.38 22.3201C191.452 22.3811 191.502 22.4613 191.528 22.5511C191.553 22.6408 191.553 22.736 191.525 22.8251C191.497 22.9141 191.445 22.9933 191.373 23.0528C191.3 23.1123 191.213 23.1496 191.12 23.1601C188.135 23.4196 185.163 23.8335 182.22 24.4001ZM188.86 17.1401C184.932 17.1258 181.068 18.1466 177.66 20.1001C171.562 23.3358 166.132 27.6996 161.66 32.9601C169.32 29.6401 180.22 25.8801 188.4 27.7601C185.82 26.4421 183.077 25.4736 180.24 24.8801C180.137 24.8583 180.045 24.8016 179.978 24.7196C179.912 24.6378 179.875 24.5354 179.875 24.4301C179.875 24.3246 179.912 24.2225 179.978 24.1405C180.045 24.0586 180.137 24.002 180.24 23.9801C183.288 23.1589 186.398 22.5969 189.54 22.3001C186.473 21.5768 183.332 21.2143 180.18 21.2201C180.078 21.2229 179.977 21.1915 179.895 21.1306C179.812 21.0696 179.752 20.9828 179.723 20.884C179.697 20.7849 179.703 20.6796 179.742 20.5848C179.782 20.4898 179.852 20.4108 179.94 20.3601C182.783 18.9561 185.777 17.876 188.86 17.1401ZM53.8004 184.44C51.8113 184.7 49.8062 184.822 47.8004 184.8C47.6986 184.803 47.5982 184.773 47.5171 184.712C47.436 184.65 47.3786 184.562 47.3549 184.462C47.3313 184.363 47.3429 184.259 47.3876 184.167C47.4324 184.075 47.5076 184.002 47.6004 183.96C50.0804 182.62 55.9204 181.3 58.9204 179.22L66.3404 174.26C66.3553 174.243 66.3738 174.23 66.3946 174.22C66.4153 174.21 66.4378 174.205 66.4604 174.205C66.4833 174.205 66.5055 174.21 66.5262 174.22C66.5469 174.23 66.5655 174.243 66.5804 174.26C66.8004 174.52 66.3404 174.54 63.8404 177.84C62.1807 179.883 60.8327 182.162 59.8404 184.6C58.768 187.15 57.8266 189.753 57.0204 192.4C57.0204 193 55.5804 193.44 55.9804 190.16C56.1462 188.937 56.3727 187.722 56.6604 186.52C54.5855 188.019 52.3993 189.355 50.1204 190.52C50.0382 190.567 49.9436 190.588 49.8495 190.58C49.7553 190.57 49.6658 190.533 49.5938 190.472C49.5215 190.41 49.4702 190.328 49.4462 190.237C49.4222 190.145 49.4273 190.048 49.4604 189.96C50.4833 187.823 51.9651 185.939 53.8004 184.44ZM65.1204 175.58C55.3204 182.48 59.7004 179.98 49.9204 183.88C51.792 183.875 53.6524 183.593 55.4404 183.04L55.6604 182.86C56.1004 182.52 56.8804 183.2 56.0204 183.76C54.0982 185.272 52.4007 187.05 50.9804 189.04C53.1953 187.907 55.2695 186.517 57.1604 184.9C57.2309 184.819 57.3276 184.763 57.4342 184.747C57.5407 184.728 57.6498 184.748 57.7429 184.803C57.8356 184.859 57.9066 184.945 57.9426 185.047C57.9786 185.148 57.9782 185.259 57.9404 185.36C57.5266 186.868 57.1931 188.397 56.9404 189.94C58.5215 184.585 61.3211 179.67 65.1204 175.58ZM66.4804 166.24C69.872 160.745 74.7175 156.294 80.4804 153.38C88.2404 149.72 91.0804 153.62 87.5604 160.62C84.5629 166.212 80.2782 171.01 75.0604 174.62C75.648 176.672 75.8844 178.808 75.7604 180.94C75.2404 182.94 65.4604 186.3 64.1204 186.14C64.0189 186.135 63.9204 186.103 63.836 186.047C63.7516 185.99 63.684 185.912 63.6404 185.82C63.4404 185.36 63.9004 184.94 64.3404 184.6C66.7822 182.817 69.3411 181.2 72.0004 179.76L71.8604 176.44L70.7204 177C70.6462 177.02 70.5676 177.02 70.4935 176.999C70.4196 176.979 70.3527 176.937 70.3004 176.88L64.0004 170.74C63.9709 170.707 63.9546 170.665 63.9546 170.62C63.9546 170.575 63.9709 170.533 64.0004 170.5C64.0004 170.5 64.2004 170.08 64.6204 169.34H61.1204C60.6004 170.42 57.1204 177.46 56.0004 177.94C55.92 177.979 55.8313 177.999 55.7422 177.995C55.6527 177.993 55.5651 177.97 55.4869 177.927C55.4084 177.883 55.3418 177.822 55.292 177.748C55.2422 177.673 55.2106 177.588 55.2004 177.5C54.9604 176 57.9204 166.22 59.8804 165.64C62.0567 165.44 64.2509 165.589 66.3804 166.08C66.412 166.093 66.4386 166.115 66.4564 166.144C66.4746 166.172 66.4829 166.206 66.4804 166.24ZM74.6204 174.76C73.8266 175.29 73.0055 175.777 72.1604 176.22L72.5804 180C72.5804 180.3 72.5804 180.12 68.5804 182.76C67.3604 183.54 66.1204 184.36 65.2804 184.98C68.3153 184.143 71.2418 182.955 74.0004 181.44C74.2204 181.3 74.8004 180.9 74.8804 180.64C75.0916 178.679 75.004 176.695 74.6204 174.76ZM65.8004 168.22C65.0204 169.38 64.5404 170.22 64.3604 170.56L70.5604 176.3C71.2804 175.94 72.0604 175.5 72.8804 175C70.2971 172.985 67.9251 170.714 65.8004 168.22ZM66.3004 166.52C64.2375 166.227 62.1433 166.227 60.0804 166.52C59.3804 166.76 58.1804 169.94 57.9604 170.52C57.2542 172.403 56.6862 174.335 56.2604 176.3C57.4604 174.52 60.7404 168.7 60.6004 168.98C60.6276 168.923 60.6702 168.877 60.7236 168.845C60.7767 168.813 60.8382 168.799 60.9004 168.8L64.8004 169C65.2004 168.24 65.6804 167.46 66.3004 166.52ZM77.3204 156.14C72.7869 159.217 68.9342 163.193 66.0004 167.82C68.656 169.859 71.0836 172.179 73.2404 174.74C77.804 171.732 81.7211 167.843 84.7604 163.3L77.3204 156.14ZM73.7404 161.16C73.3556 161.563 73.0542 162.038 72.8527 162.558C72.6516 163.077 72.5549 163.632 72.568 164.189C72.5807 164.746 72.7033 165.295 72.9287 165.805C73.1538 166.315 73.4771 166.775 73.8804 167.16C74.2836 167.545 74.7586 167.847 75.2782 168.048C75.7982 168.248 76.352 168.345 76.9095 168.333C77.4666 168.32 78.0156 168.197 78.5255 167.972C79.0353 167.747 79.4956 167.423 79.8804 167.02C80.6575 166.206 81.0793 165.116 81.0531 163.991C81.0269 162.866 80.5546 161.797 79.7404 161.02C78.9262 160.243 77.8367 159.821 76.7113 159.847C75.5862 159.873 74.5175 160.346 73.7404 161.16ZM79.3204 161.48C79.964 162.141 80.3244 163.027 80.3244 163.95C80.3244 164.873 79.964 165.759 79.3204 166.42C78.6891 167.005 77.8582 167.328 76.9975 167.322C76.1364 167.315 75.3102 166.982 74.6876 166.387C74.0647 165.792 73.6924 164.982 73.6466 164.122C73.6007 163.263 73.8844 162.417 74.4404 161.76C75.0593 161.091 75.9138 160.687 76.824 160.635C77.7342 160.583 78.6291 160.885 79.3204 161.48ZM78.2204 162.62C78.4927 162.903 78.676 163.259 78.7473 163.645C78.8182 164.031 78.7746 164.429 78.6211 164.79C78.4676 165.151 78.2113 165.46 77.884 165.676C77.5564 165.893 77.1727 166.008 76.7804 166.008C76.388 166.008 76.004 165.893 75.6767 165.676C75.3498 165.46 75.0935 165.151 74.94 164.79C74.7862 164.429 74.7422 164.031 74.8138 163.645C74.8847 163.259 75.068 162.903 75.3404 162.62C75.5269 162.427 75.7506 162.273 75.9982 162.167C76.2455 162.062 76.5116 162.008 76.7804 162.008C77.0491 162.008 77.3153 162.062 77.5626 162.167C77.8102 162.273 78.0338 162.427 78.2204 162.62Z" fill="black"/>
<path fill-rule="evenodd" clip-rule="evenodd" d="M141.54 26.7801C141.357 26.625 141.213 26.4287 141.121 26.2075C141.028 25.9861 140.989 25.7461 141.008 25.5072C141.025 25.268 141.1 25.0365 141.224 24.8317C141.349 24.6267 141.52 24.4541 141.724 24.3281C141.928 24.202 142.159 24.126 142.398 24.1063C142.637 24.0867 142.878 24.1237 143.1 24.2147C143.321 24.3055 143.519 24.4475 143.675 24.6293C143.832 24.811 143.943 25.0272 144 25.2601C144.014 25.5118 143.969 25.7633 143.868 25.9943C143.766 26.2252 143.612 26.429 143.417 26.5888C143.222 26.7487 142.992 26.8601 142.746 26.9143C142.499 26.9685 142.244 26.9635 142 26.9001C142 27.1001 141.7 29.3201 141.1 31.9201C143.879 31.9307 146.561 32.9385 148.66 34.7601C148.69 34.7043 148.74 34.6617 148.8 34.6401C164.4 32.4401 166.02 37.6001 161 41.7401C155.36 46.4001 138.04 51.7401 128.48 50.4801C125.98 50.1801 122.1 49.0201 122.06 46.6601C122.06 43.6201 130.2 40.2401 130.52 40.0801C131.824 36.7783 134.343 34.1013 137.56 32.6001C136.14 31.0601 134.66 28.8201 134.32 28.4401C132.62 29.3601 131.02 27.1801 132.32 26.0601C132.606 25.809 132.98 25.6798 133.36 25.7001C133.677 25.6358 134.006 25.6803 134.295 25.8263C134.584 25.9723 134.815 26.2113 134.951 26.5048C135.088 26.7981 135.121 27.129 135.047 27.4438C134.972 27.7587 134.793 28.0392 134.54 28.2401C135.213 28.7248 135.812 29.3041 136.32 29.9601C139.2 33.4401 136.76 32.2401 140.32 31.9601C140.426 30.1761 140.838 28.4238 141.54 26.7801ZM130.18 40.6401C128.38 41.5201 122.58 44.6401 122.66 46.6401C122.66 47.3001 123.24 47.9601 124.3 48.5401C131.74 52.5401 153.88 46.2601 160.3 41.0401C163.96 38.1001 163.58 35.2801 156.62 34.7801C153.951 34.6592 151.277 34.7393 148.62 35.0201C148.12 36.1801 143.3 45.3001 130.18 40.6401ZM128.18 45.4001C128.093 45.5852 128.045 45.7866 128.041 45.991C128.037 46.1953 128.076 46.3986 128.155 46.587C128.234 46.7753 128.352 46.9452 128.501 47.0855C128.65 47.2255 128.827 47.3328 129.02 47.4001C129.212 47.4477 129.411 47.4572 129.606 47.4277C129.802 47.3983 129.989 47.3306 130.158 47.2284C130.328 47.1263 130.475 46.9914 130.592 46.8321C130.709 46.6728 130.793 46.4921 130.84 46.3001C130.959 45.9473 130.933 45.5615 130.768 45.2277C130.603 44.8939 130.312 44.6393 129.96 44.5201C129.607 44.4008 129.221 44.4263 128.888 44.5913C128.554 44.7564 128.299 45.0473 128.18 45.4001ZM129.82 44.8401C130.7 45.2401 130.1 46.8401 129.26 46.6001C128.42 46.3601 128.86 44.6601 129.82 44.8401ZM143.62 43.7001C143.478 43.5946 143.315 43.5226 143.142 43.4884C142.969 43.4546 142.791 43.4597 142.62 43.5041C142.449 43.5481 142.29 43.6299 142.155 43.7433C142.02 43.8572 141.912 43.9993 141.84 44.1601C141.686 44.5186 141.671 44.9212 141.796 45.2906C141.922 45.6597 142.18 45.9695 142.52 46.1601C142.682 46.2608 142.865 46.3237 143.055 46.3444C143.245 46.3652 143.437 46.343 143.617 46.2793C143.798 46.2161 143.962 46.1132 144.097 45.9786C144.232 45.8437 144.336 45.6801 144.4 45.5001C144.512 45.1564 144.495 44.7837 144.351 44.4524C144.207 44.1208 143.947 43.8532 143.62 43.7001ZM143.46 43.9801C144.26 44.5801 143.74 45.9801 142.9 45.5001C142.06 45.0201 142.5 43.5801 143.46 44.0001V43.9801ZM154.16 38.2601C154.044 38.1513 153.904 38.0699 153.752 38.0226C153.6 37.975 153.44 37.9623 153.282 37.9852C153.124 38.0084 152.974 38.0666 152.842 38.1557C152.71 38.2448 152.6 38.3626 152.52 38.5001C152.365 38.8204 152.333 39.1859 152.428 39.5284C152.524 39.871 152.741 40.1666 153.04 40.3601C153.173 40.4688 153.329 40.5463 153.496 40.5873C153.663 40.6284 153.837 40.6317 154.005 40.5975C154.173 40.563 154.332 40.4913 154.47 40.3881C154.607 40.2848 154.72 40.1524 154.8 40.0001C154.873 39.8441 154.915 39.675 154.923 39.5026C154.931 39.3303 154.904 39.1579 154.845 38.9961C154.785 38.8339 154.694 38.6855 154.576 38.559C154.459 38.4328 154.317 38.331 154.16 38.2601ZM154 38.5201C154.6 39.0801 154.18 40.2001 153.48 39.7201C152.78 39.2401 153.18 38.1201 154 38.5201ZM133.36 26.0001C133.619 26.0097 133.864 26.1153 134.049 26.2967C134.234 26.4778 134.345 26.7215 134.36 26.9801C134.349 27.2118 134.25 27.4305 134.082 27.5908C133.915 27.751 133.692 27.8403 133.46 27.8401C133.339 27.8467 133.218 27.8293 133.104 27.7892C132.99 27.749 132.885 27.6868 132.795 27.606C132.613 27.4428 132.503 27.2141 132.49 26.9701C132.476 26.7261 132.561 26.4868 132.724 26.3048C132.887 26.123 133.116 26.0133 133.36 26.0001ZM142.22 24.3001C142.479 24.3097 142.724 24.4153 142.909 24.5967C143.094 24.7778 143.205 25.0215 143.22 25.2801C143.209 25.5118 143.11 25.7305 142.942 25.8908C142.775 26.051 142.552 26.1403 142.32 26.1401C142.191 26.1652 142.058 26.1623 141.93 26.1317C141.802 26.1012 141.683 26.0435 141.579 25.9627C141.475 25.8818 141.39 25.7798 141.329 25.6633C141.268 25.5468 141.233 25.4187 141.226 25.2875C141.219 25.1561 141.239 25.025 141.287 24.9025C141.335 24.7801 141.408 24.6693 141.503 24.5777C141.597 24.486 141.709 24.4155 141.833 24.3712C141.957 24.3267 142.089 24.3093 142.22 24.3201V24.3001ZM240.92 123.6C241.858 121.861 243.397 120.523 245.25 119.835C247.102 119.147 249.142 119.157 250.988 119.862C252.833 120.567 254.36 121.919 255.282 123.667C256.205 125.415 256.46 127.438 256 129.36C258.942 130.791 261.752 132.478 264.4 134.4C265.56 135.44 265.4 136.4 263.34 136.26C259.763 135.941 256.225 135.271 252.78 134.26C251.677 135.065 250.39 135.58 249.037 135.758C247.683 135.935 246.307 135.77 245.033 135.275C243.76 134.782 242.632 133.975 241.753 132.931C240.873 131.887 240.27 130.638 240 129.3C238 128.34 231.06 124.76 230.64 122.74C230.5 122 231.22 121.66 231.98 121.58C235.053 121.742 238.075 122.425 240.92 123.6ZM255.84 129.78C255.45 131.139 254.712 132.373 253.7 133.36C257.098 134.34 260.58 135.009 264.1 135.36C262.96 133.88 257.48 130.72 255.84 129.78ZM240.72 129.6C241.045 130.726 241.623 131.761 242.413 132.626C243.203 133.491 244.182 134.162 245.272 134.588C246.363 135.014 247.538 135.182 248.705 135.08C249.872 134.978 250.998 134.608 252 134C248.137 132.815 244.365 131.344 240.72 129.6ZM253.08 133.18C254.485 131.928 255.38 130.202 255.595 128.331C255.808 126.461 255.327 124.578 254.24 123.04C253.67 122.2 252.935 121.486 252.08 120.94C251.223 120.394 250.267 120.029 249.265 119.866C248.263 119.703 247.238 119.746 246.255 119.993C245.27 120.239 244.347 120.684 243.54 121.3C242.453 122.1 241.597 123.171 241.057 124.407C240.515 125.643 240.31 126.999 240.46 128.34C244.53 130.291 248.75 131.909 253.08 133.18ZM240.72 124C239.24 123.52 232.72 121.64 231.54 122.56C232 124 238.5 127.38 240 128C239.887 126.627 240.133 125.247 240.72 124ZM95.7196 247.26C98.1346 248.847 100.676 250.232 103.32 251.4C103.345 251.408 103.373 251.407 103.398 251.399C103.423 251.388 103.444 251.37 103.458 251.347C103.472 251.323 103.478 251.297 103.475 251.27C103.471 251.243 103.459 251.219 103.44 251.2C101.022 249.617 98.4807 248.234 95.8396 247.06C95.8142 247.052 95.7866 247.054 95.7615 247.062C95.736 247.072 95.7149 247.09 95.7011 247.114C95.6873 247.135 95.6815 247.163 95.6851 247.19C95.6884 247.217 95.7004 247.242 95.7196 247.26ZM52.3596 71.6601C52.3596 66.8201 52.6396 62.2601 52.6396 62.4601C52.6527 62.4201 52.6782 62.3852 52.7124 62.3604C52.7465 62.3357 52.7876 62.3226 52.8298 62.3226C52.872 62.3226 52.9127 62.3357 52.9469 62.3604C52.9811 62.3852 53.0065 62.4201 53.0196 62.4601C53.0196 63.9201 53.2796 65.2201 53.2996 71.9801C54.7778 71.0183 56.3065 70.1368 57.8796 69.3401C57.9007 69.327 57.924 69.3183 57.9484 69.3139C57.9731 69.3099 57.9982 69.3106 58.0222 69.3161C58.0462 69.3219 58.0691 69.3321 58.0895 69.3466C58.1095 69.3608 58.1265 69.379 58.1396 69.4001C58.1527 69.4212 58.1618 69.4444 58.1658 69.4692C58.1702 69.4932 58.1691 69.5183 58.1636 69.5426C58.1582 69.5666 58.1476 69.5895 58.1335 69.6095C58.1189 69.6299 58.1007 69.647 58.0796 69.6601C56.7996 70.7103 55.464 71.6917 54.0796 72.6001C56.9596 74.1801 57.5396 74.6001 58.9196 75.4401C60.2996 76.2801 60.3196 76.2801 60.2196 76.4801C60.1196 76.6801 60.0196 76.6001 58.6396 75.9601C57.2596 75.3201 56.3196 74.9201 53.2996 73.2601C53.2996 80.9201 52.9996 84.4201 52.9996 84.2201C52.9865 84.2601 52.9611 84.295 52.9269 84.3197C52.8927 84.3444 52.852 84.3575 52.8098 84.3575C52.7676 84.3575 52.7265 84.3444 52.6924 84.3197C52.6582 84.295 52.6327 84.2601 52.6196 84.2201C52.6196 82.7801 52.3396 81.5201 52.3396 73.7201C50.7793 74.7539 49.1636 75.7019 47.4996 76.5601C47.4785 76.5732 47.4553 76.5823 47.4309 76.5863C47.4065 76.5903 47.3815 76.5895 47.3575 76.5841C47.3331 76.5783 47.3102 76.5681 47.2902 76.5535C47.2702 76.5393 47.2527 76.5212 47.2396 76.5001C47.2265 76.479 47.2178 76.4557 47.2138 76.4314C47.2095 76.407 47.2102 76.3819 47.216 76.3575C47.2215 76.3335 47.2316 76.3106 47.2462 76.2906C47.2604 76.2703 47.2785 76.2532 47.2996 76.2401C48.8745 74.9506 50.524 73.755 52.2396 72.6601C50.6196 71.7601 50.0996 71.4401 48.8196 70.6601C47.5396 69.8801 47.1196 69.6401 47.2196 69.4201C47.2575 69.3924 47.3029 69.3775 47.3498 69.3775C47.3964 69.3775 47.4422 69.3924 47.4796 69.4201C49.9996 70.3601 51.4996 71.2201 52.3596 71.6601Z" fill="black"/>
<path fill-rule="evenodd" clip-rule="evenodd" d="M95.8404 251.4C98.0808 250.225 100.204 248.838 102.18 247.26C102.32 247.26 102.18 246.98 102.06 247.06C99.8215 248.237 97.6986 249.623 95.7204 251.2C95.6004 251.28 95.7204 251.48 95.8404 251.4ZM157.84 130.8C157.84 136.42 158.04 137.32 158.04 138.34C158.032 138.361 158.029 138.384 158.031 138.407C158.033 138.43 158.041 138.451 158.054 138.47C158.067 138.49 158.084 138.505 158.105 138.515C158.125 138.526 158.147 138.532 158.17 138.532C158.193 138.532 158.216 138.526 158.236 138.515C158.256 138.505 158.273 138.49 158.286 138.47C158.299 138.451 158.307 138.43 158.309 138.407C158.312 138.384 158.309 138.361 158.3 138.34C158.3 138.54 158.52 135.3 158.52 130.46C160.071 131.337 161.666 132.131 163.3 132.84C163.46 132.84 163.6 132.68 163.44 132.6C162.032 131.659 160.577 130.791 159.08 130C160.071 129.388 161.026 128.72 161.94 128C161.967 127.979 161.986 127.95 161.993 127.916C161.999 127.882 161.993 127.847 161.976 127.818C161.959 127.789 161.932 127.767 161.899 127.756C161.867 127.745 161.832 127.747 161.8 127.76C161.8 127.76 160.16 128.6 158.52 129.66C158.52 124.68 158.32 123.66 158.32 122.82C158.32 122.783 158.305 122.747 158.279 122.721C158.253 122.695 158.217 122.68 158.18 122.68C158.143 122.68 158.108 122.695 158.081 122.721C158.055 122.747 158.04 122.783 158.04 122.82C158.04 122.62 157.86 126.04 157.84 129.44C157.26 129.14 156.1 128.52 154.34 127.76C154.18 127.76 154.04 127.92 154.2 128C154.36 128.08 155.68 129.02 157.76 130.16C156.529 130.906 155.34 131.72 154.2 132.6C154.04 132.6 154.2 132.94 154.34 132.84C154.14 132.94 155.64 132.2 157.84 130.8ZM208.12 272.12C205.94 271.22 182.94 269.8 182.74 269.78C182.12 269.78 177.64 270.68 177.34 270.76C177.04 270.84 177.34 270.76 177.34 270.86C179.088 271.658 180.893 272.327 182.74 272.86C184.74 273.28 188.74 273.32 207.7 275.36C208.06 275.36 208.82 274.12 208.38 272.32C208.36 272.26 208.22 272.18 208.12 272.12ZM182.64 272.66L179.62 271.6C179.737 271.44 179.813 271.255 179.84 271.06C179.868 270.865 179.848 270.665 179.78 270.48C180.758 270.283 181.747 270.142 182.74 270.06C183.22 270.54 181.94 270.72 182.9 271.34C183.02 271.34 183.04 271.34 182.9 271.48C182.85 271.505 182.805 271.54 182.768 271.583C182.73 271.627 182.703 271.677 182.687 271.732C182.67 271.785 182.663 271.843 182.67 271.898C182.675 271.955 182.693 272.01 182.72 272.06C182.88 272.34 183.06 272.46 182.64 272.66ZM182.88 272.66C183.44 272.36 182.68 271.9 183.06 271.66C183.9 271.08 179.9 271.24 206.32 273.66C206.265 274.072 206.357 274.49 206.58 274.84L182.88 272.66ZM206.34 273.5C205.44 273.4 183.3 271.3 183.16 271.18C183.02 271.06 182.66 270.96 182.84 270.72C183.02 270.48 183.12 270.26 182.84 270.02C183.04 270.02 202.66 271.58 206.84 272.28C206.548 272.638 206.373 273.078 206.34 273.54V273.5ZM207.62 274.88C207.48 274.74 207.46 274.78 207.32 274.38C207.18 273.98 207.32 272.62 207.96 272.62C208.058 273.007 208.078 273.408 208.02 273.803C207.962 274.198 207.827 274.578 207.62 274.92V274.88ZM221.52 215.86C221.498 215.787 221.46 215.718 221.408 215.662C221.357 215.605 221.293 215.56 221.222 215.53C221.152 215.5 221.075 215.487 220.997 215.492C220.92 215.495 220.845 215.515 220.778 215.552C220.71 215.588 220.652 215.638 220.605 215.7C220.56 215.762 220.528 215.834 220.513 215.908C220.498 215.983 220.5 216.062 220.518 216.137C220.537 216.212 220.572 216.28 220.62 216.34C220.82 216.66 221.02 216.98 221.24 217.3C221.27 217.368 221.315 217.43 221.372 217.48C221.428 217.53 221.495 217.567 221.568 217.588C221.64 217.61 221.717 217.617 221.79 217.605C221.865 217.595 221.937 217.567 222 217.527C222.063 217.485 222.117 217.43 222.157 217.367C222.197 217.303 222.223 217.232 222.232 217.157C222.242 217.082 222.235 217.005 222.212 216.934C222.19 216.862 222.152 216.795 222.1 216.74C222 216.46 221.7 216.16 221.52 215.86ZM196.6 173.38C196.72 172.44 197.82 167.66 197.4 167.56C197.377 167.55 197.352 167.547 197.327 167.547C197.301 167.548 197.277 167.555 197.253 167.567C197.23 167.578 197.21 167.594 197.195 167.614C197.178 167.634 197.167 167.655 197.16 167.68C196.593 169.077 196.158 170.522 195.86 172C195.747 172.52 195.673 173.048 195.64 173.58C195.643 173.662 195.667 173.742 195.708 173.812C195.75 173.882 195.81 173.938 195.88 173.98C196.382 174.235 196.923 174.405 197.48 174.48C197.92 174.48 199.48 174.6 199.3 174.18C199.12 173.76 198.88 174.52 196.6 173.38ZM205.58 170.48V169.44C205.58 168.72 204.58 168.62 204.56 169.44V170.58C204.555 170.655 204.565 170.732 204.593 170.802C204.62 170.874 204.662 170.937 204.715 170.99C204.77 171.043 204.835 171.083 204.907 171.108C204.978 171.133 205.055 171.143 205.13 171.135C205.205 171.128 205.278 171.103 205.343 171.065C205.408 171.027 205.465 170.975 205.507 170.912C205.55 170.85 205.578 170.778 205.592 170.705C205.605 170.63 205.6 170.554 205.58 170.48ZM206.9 176C206.26 178.4 205.4 178.76 204.36 178.88C204.147 178.897 203.933 178.897 203.72 178.88C203.673 178.863 203.62 178.868 203.575 178.89C203.53 178.914 203.497 178.952 203.48 179C203.465 179.048 203.468 179.1 203.49 179.145C203.513 179.19 203.553 179.223 203.6 179.24C205.34 180.24 207.72 179.02 207.28 176C207.267 175.96 207.242 175.925 207.208 175.9C207.173 175.875 207.132 175.862 207.09 175.862C207.048 175.862 207.007 175.875 206.973 175.9C206.938 175.925 206.913 175.96 206.9 176ZM214.42 201C214.408 200.935 214.383 200.872 214.348 200.815C214.312 200.76 214.265 200.71 214.21 200.674C214.155 200.635 214.093 200.608 214.028 200.594C213.963 200.58 213.897 200.578 213.83 200.59C213.765 200.602 213.702 200.627 213.645 200.662C213.59 200.698 213.541 200.745 213.503 200.8C213.465 200.855 213.438 200.917 213.423 200.982C213.41 201.047 213.408 201.115 213.42 201.18C213.505 201.552 213.613 201.92 213.74 202.28C213.747 202.357 213.77 202.432 213.808 202.498C213.847 202.565 213.898 202.622 213.962 202.667C214.025 202.71 214.098 202.74 214.173 202.752C214.25 202.765 214.327 202.76 214.402 202.74C214.475 202.718 214.543 202.68 214.601 202.63C214.66 202.578 214.705 202.517 214.737 202.445C214.767 202.375 214.781 202.298 214.778 202.22C214.775 202.143 214.755 202.068 214.72 202C214.6 201.66 214.5 201.32 214.42 201ZM194.74 167.5C194.755 167.425 194.753 167.347 194.735 167.272C194.717 167.197 194.682 167.128 194.632 167.068C194.583 167.008 194.522 166.962 194.453 166.928C194.383 166.895 194.307 166.878 194.23 166.878C194.153 166.878 194.077 166.895 194.008 166.928C193.938 166.962 193.877 167.008 193.828 167.068C193.78 167.128 193.745 167.197 193.727 167.272C193.707 167.347 193.705 167.425 193.72 167.5V168.64C193.705 168.715 193.707 168.794 193.727 168.868C193.745 168.942 193.78 169.012 193.828 169.072C193.877 169.13 193.938 169.178 194.008 169.212C194.077 169.245 194.153 169.262 194.23 169.262C194.307 169.262 194.383 169.245 194.453 169.212C194.522 169.178 194.583 169.13 194.632 169.072C194.682 169.012 194.717 168.942 194.735 168.868C194.753 168.794 194.755 168.715 194.74 168.64C194.717 168.26 194.717 167.88 194.74 167.5ZM352.84 251.28C352.72 251.3 352.84 251.28 352.84 251.28V251.28Z" fill="black"/>
<path fill-rule="evenodd" clip-rule="evenodd" d="M362.82 250C360.6 248.92 355.32 249.82 352.82 250.34C351.902 249.313 350.743 248.532 349.448 248.065C348.153 247.597 346.762 247.458 345.4 247.66C343.16 248.22 342.62 250.98 342.72 253.3C341.28 253.04 339.72 252.86 338.28 252.72C338.4 252.28 338.78 251.66 338.66 251.22C338.595 251.063 338.497 250.921 338.373 250.807C338.248 250.69 338.1 250.603 337.938 250.55C337.777 250.497 337.607 250.478 337.437 250.498C337.268 250.517 337.105 250.572 336.96 250.66C336.562 250.978 336.193 251.333 335.86 251.72C335.86 251.02 336.44 249.9 335.74 249.72C335.04 249.54 332.86 251.5 332.24 252.2C327.647 251.695 323.013 251.695 318.42 252.2C312.407 252.632 306.74 255.175 302.42 259.38C326.74 231.38 337.42 212.14 337.14 188.16C336.86 164.18 308.36 152.74 296.64 152.44C285.26 152.16 273.52 158.44 272.92 158.44C262.64 160.44 235.68 157.46 230.02 159.82C230.09 157.285 229.635 154.764 228.685 152.414C227.735 150.063 226.31 147.934 224.5 146.16C221.26 142.62 216.08 141.3 210.82 141.52C203.32 141.86 195.88 145 192.16 151.52C190.927 153.631 190.202 156 190.04 158.44C190.04 159.06 188.76 169.26 192.04 176.98C192.78 178.935 193.963 180.692 195.497 182.11C197.032 183.53 198.873 184.573 200.88 185.16C197.647 189.447 194.682 193.928 192 198.58C191.38 199.88 191.84 200.58 192.74 200.58C193.64 200.58 194.84 200.34 195.68 200.38C194.36 204 191 213.44 190.18 217.18C186.068 219.948 182.365 223.281 179.18 227.08C173.18 233.96 170.38 241.42 163.58 245.4L161.58 246.52C164.3 238.26 169.44 221.86 167.58 221.84C165.72 221.82 161.2 237.6 158.32 248.3C155.24 250 153.68 251.08 152.6 254.44C152.248 255.29 152.067 256.2 152.067 257.12C152.067 258.04 152.248 258.95 152.6 259.8C152.728 260.072 152.925 260.308 153.17 260.483C153.415 260.658 153.701 260.767 154 260.8C154.24 260.8 154.24 260.58 153.58 262.04C153.266 262.13 152.968 262.272 152.7 262.46L143.08 256.6C142.86 256.6 145.62 256.22 87.08 263.84C85.98 263.02 84.82 262.16 83.62 261.22C54.86 238.84 148.78 214.82 156.3 184.24C163.04 156.86 124.3 151.34 132.9 125.62C141.5 99.9 197.74 107.1 250.68 104.02C303.62 100.94 324.68 47.5 286.14 19.66C247.6 -8.18015 208 31.36 198.64 41.46C189.28 51.56 178.48 64.78 148.16 63.46C117.84 62.14 78.16 67.28 63.62 111.24C56.62 132.28 62.9 147.04 72.24 158.74C75.3684 155.557 79.2375 153.2 83.5 151.88C85.98 151.28 88.44 151.6 89.14 154.06C90.46 158.58 84.98 165.6 81.8 169.1C89.8 176.82 97.48 183.34 100.5 190.08C105.54 201.4 81.38 209.78 71.18 216.4C60.98 223.02 45.4 243.5 54.96 263.38C55.6782 264.903 56.4796 266.385 57.36 267.82C37.08 270.44 36.38 270.44 36.1802 270.56C35.9802 270.68 36.0402 271.04 36.1802 271.24H36.0402C37.84 273.24 90.82 348.96 123.34 387.44L123.92 387.56C130.96 384.178 258.72 322.16 251.92 318.34C251.92 318.34 158.52 266.2 156.3 264.88C156.648 264.283 156.948 263.661 157.2 263.02C157.311 263.012 157.415 262.965 157.496 262.888C157.576 262.812 157.627 262.71 157.64 262.6V261.52C158.88 261.94 160.82 260.74 161.82 259.84C163.82 258 166.82 252.88 169.04 252.2C173.467 251.097 177.833 249.761 182.12 248.2C199.94 241.52 207.34 234.04 215.1 221.96C216.383 220.073 217.475 218.063 218.36 215.96C222.888 220.85 228.393 224.735 234.52 227.36C218.36 246.02 220.9 257.86 226.74 264.32C232.08 270.22 240.74 268.14 242.16 267.7C242.16 276.58 245.16 296.3 246.16 298.28C246.68 299.42 244.94 300.28 244.58 302.54C244.392 303.688 244.54 304.867 245.008 305.932C245.477 306.998 246.245 307.903 247.22 308.54C249.44 309.94 253.22 310.02 251.74 307.8C251.247 307.165 250.69 306.583 250.08 306.06C250.66 306.24 251.3 306.48 252.08 306.76C259.38 309.62 260.34 310.92 261.68 310.54C261.86 310.498 262.028 310.417 262.173 310.303C262.318 310.19 262.437 310.045 262.52 309.88C262.68 309.99 262.862 310.067 263.052 310.101C263.243 310.137 263.438 310.132 263.628 310.087C263.817 310.041 263.993 309.957 264.147 309.838C264.302 309.72 264.428 309.57 264.52 309.4C264.588 309.27 264.625 309.127 264.625 308.98C264.625 308.833 264.588 308.69 264.52 308.56C264.773 308.133 264.86 307.627 264.76 307.14C264.76 305.34 257.88 299.46 256.48 298.3C256.68 296.3 257.74 291.86 260.38 280.06C274.02 295.44 319.88 274.06 322.38 272.98C322.8 273.42 339.74 266.2 341.7 265.16C341.5 265.16 363.18 255.36 364 251.76C364 250.92 363.46 250.38 362.82 250ZM285.46 68.92C285.792 68.9302 286.105 69.0706 286.332 69.3098C286.56 69.5495 286.685 69.8691 286.68 70.2C286.685 70.3644 286.658 70.5284 286.6 70.6822C286.54 70.8357 286.452 70.9764 286.338 71.0957C286.225 71.2146 286.088 71.3102 285.938 71.376C285.787 71.4418 285.625 71.4771 285.46 71.48C285.295 71.4771 285.132 71.4422 284.98 71.3764C284.828 71.3106 284.69 71.2157 284.575 71.0968C284.46 70.9778 284.37 70.8375 284.308 70.6837C284.248 70.5298 284.218 70.3651 284.22 70.2C284.218 70.0346 284.248 69.8698 284.308 69.716C284.37 69.5622 284.46 69.4218 284.575 69.3029C284.69 69.184 284.828 69.0891 284.98 69.0233C285.132 68.9575 285.295 68.9226 285.46 68.92ZM274.16 34C274.322 33.9998 274.482 34.0321 274.632 34.0947C274.782 34.1571 274.917 34.2488 275.03 34.3643C275.143 34.4796 275.233 34.6165 275.293 34.7668C275.353 34.9171 275.383 35.078 275.38 35.24C275.402 35.4118 275.388 35.5865 275.337 35.7523C275.287 35.9181 275.202 36.0713 275.087 36.2015C274.972 36.3316 274.832 36.436 274.673 36.5073C274.515 36.5789 274.343 36.6157 274.17 36.6157C273.997 36.6157 273.825 36.5789 273.667 36.5073C273.51 36.436 273.368 36.3316 273.253 36.2015C273.14 36.0713 273.055 35.9181 273.003 35.7523C272.953 35.5865 272.938 35.4118 272.96 35.24C272.958 35.0796 272.987 34.9205 273.045 34.7715C273.105 34.6225 273.192 34.4865 273.303 34.3713C273.415 34.2561 273.548 34.1641 273.695 34.1003C273.842 34.0366 274 34.0025 274.16 34ZM236.56 89.18C236.417 89.1538 236.288 89.0786 236.195 88.9673C236.102 88.8557 236.052 88.7153 236.052 88.5698C236.052 88.4248 236.102 88.284 236.195 88.1728C236.288 88.0611 236.417 87.9858 236.56 87.96C236.727 87.96 236.888 88.0262 237.005 88.1444C237.123 88.2626 237.19 88.4229 237.19 88.5898C237.19 88.7571 237.123 88.9175 237.005 89.0353C236.888 89.1535 236.727 89.22 236.56 89.22V89.18ZM231.12 34.24C231.12 33.44 233.12 33.04 234 32.92C235.453 32.7278 236.927 32.7278 238.38 32.92C239.282 31.2656 240.39 29.7331 241.68 28.36C242.1 28.02 242.48 27.9 242.86 28.36C243.765 30.1865 244.347 32.1553 244.58 34.18C247.68 34.98 252 36.46 249.4 38.32C248.6 38.9 247.18 39.5 245.64 40.32C245.813 41.9338 245.867 43.5582 245.8 45.18C245.8 45.92 245.6 47.04 244.86 47.18C243.36 47.44 242.2 45.36 239.84 43.32C237.58 44.44 233.06 46.92 232.96 44.54C233.205 42.5098 233.808 40.5393 234.74 38.72C232.44 36.54 230.98 35.48 231.12 34.28V34.24ZM229.12 71.02C229.115 72.416 228.752 73.7873 228.062 75.0011C227.373 76.2153 226.383 77.2313 225.187 77.9513C223.99 78.6709 222.628 79.0698 221.233 79.1102C219.838 79.1502 218.455 78.8298 217.22 78.18L228.86 68.94C229.038 69.6328 229.133 70.3444 229.14 71.06L229.12 71.02ZM228.62 68.2C225.42 70.66 221.12 74.2 216.82 77.94C216.497 77.7448 216.188 77.524 215.9 77.28C220.08 73.06 224.18 68.3 226.72 65.28C227.557 66.1244 228.21 67.132 228.64 68.24L228.62 68.2ZM226.28 64.86C225.48 65.72 218.52 73.56 215.52 76.86C214.667 76.0757 213.985 75.1222 213.52 74.06C216.56 71.86 220.7 68.8 225.3 65.18L226.02 64.6L226.28 64.86ZM221.02 62.86C222.625 62.8582 224.193 63.3389 225.52 64.24L222.7 66.24C222.06 66.72 217.2 70.54 213.36 73.54C212.953 72.3211 212.84 71.0229 213.03 69.7517C213.222 68.4808 213.71 67.2731 214.458 66.2273C215.205 65.1815 216.188 64.3277 217.33 63.7353C218.47 63.1433 219.735 62.8295 221.02 62.82V62.86ZM201.74 59.58C201.983 59.572 202.223 59.6368 202.428 59.7659C202.635 59.8949 202.797 60.0826 202.895 60.3048C202.993 60.5269 203.023 60.7731 202.982 61.0124C202.938 61.2517 202.827 61.4728 202.657 61.6473C202.488 61.8222 202.272 61.9422 202.033 61.9928C201.795 62.0433 201.548 62.0215 201.323 61.9302C201.098 61.8393 200.905 61.6833 200.768 61.4815C200.633 61.2804 200.56 61.0429 200.56 60.8C200.58 60.4957 200.717 60.2106 200.938 60.0026C201.162 59.7946 201.455 59.6793 201.76 59.68L201.74 59.58ZM190.72 89.86C191.187 89.8757 191.64 90.0284 192.02 90.2993C192.4 90.5702 192.693 90.9473 192.862 91.3833C193.028 91.8193 193.065 92.2949 192.965 92.7513C192.863 93.2077 192.632 93.624 192.295 93.9491C191.96 94.2738 191.535 94.4928 191.077 94.5782C190.617 94.6637 190.142 94.6124 189.712 94.4298C189.282 94.2477 188.915 93.9429 188.657 93.5535C188.398 93.164 188.26 92.7073 188.26 92.24C188.277 91.5997 188.543 90.9913 189.003 90.5462C189.463 90.1011 190.08 89.8546 190.72 89.86ZM159.6 84.22C160.46 84.22 160.46 85.76 159.6 85.76C158.74 85.76 158.72 84.22 159.6 84.22ZM78.26 128.44C78.1655 128.457 78.068 128.452 77.9749 128.427C77.8818 128.403 77.7953 128.357 77.7215 128.295C77.6476 128.233 77.5884 128.156 77.5476 128.069C77.5069 127.981 77.4858 127.886 77.4858 127.79C77.4858 127.693 77.5069 127.598 77.5476 127.511C77.5884 127.424 77.6476 127.346 77.7215 127.284C77.7953 127.223 77.8818 127.177 77.9749 127.152C78.068 127.127 78.1655 127.123 78.26 127.14C78.3553 127.123 78.4524 127.127 78.5458 127.152C78.6386 127.177 78.7251 127.223 78.7989 127.284C78.8727 127.346 78.932 127.424 78.9727 127.511C79.0138 127.598 79.0346 127.693 79.0346 127.79C79.0346 127.886 79.0138 127.981 78.9727 128.069C78.932 128.156 78.8727 128.233 78.7989 128.295C78.7251 128.357 78.6386 128.403 78.5458 128.427C78.4524 128.452 78.3553 128.457 78.26 128.44ZM121.26 206.96C120.992 206.928 120.737 206.821 120.529 206.648C120.32 206.477 120.166 206.247 120.085 205.99C120.004 205.732 119.999 205.455 120.071 205.195C120.144 204.933 120.29 204.7 120.493 204.52C120.695 204.341 120.945 204.225 121.213 204.185C121.481 204.145 121.754 204.183 122 204.295C122.247 204.407 122.455 204.588 122.6 204.817C122.746 205.043 122.822 205.31 122.82 205.58C122.795 205.968 122.616 206.332 122.324 206.59C122.032 206.85 121.65 206.981 121.26 206.96ZM126 73.2C126.274 73.196 126.543 73.2735 126.772 73.4226C127.002 73.572 127.182 73.7858 127.289 74.0378C127.397 74.2895 127.427 74.5677 127.376 74.8368C127.325 75.1055 127.195 75.3535 127.003 75.5484C126.811 75.7433 126.565 75.8768 126.297 75.9317C126.029 75.9866 125.75 75.9604 125.497 75.8568C125.244 75.7528 125.027 75.576 124.874 75.3488C124.722 75.1211 124.64 74.8535 124.64 74.58C124.64 74.2171 124.783 73.8691 125.037 73.6113C125.292 73.3528 125.638 73.2051 126 73.2ZM127.16 145.02C127.158 145.215 127.1 145.406 126.993 145.569C126.886 145.733 126.735 145.862 126.556 145.941C126.378 146.021 126.18 146.048 125.987 146.019C125.794 145.989 125.613 145.905 125.467 145.776C125.32 145.647 125.213 145.479 125.16 145.291C125.106 145.103 125.107 144.904 125.163 144.717C125.22 144.53 125.328 144.363 125.477 144.236C125.625 144.108 125.807 144.027 126 144C126.141 143.989 126.282 144.007 126.415 144.053C126.548 144.1 126.671 144.173 126.774 144.269C126.877 144.365 126.96 144.481 127.016 144.61C127.072 144.739 127.101 144.879 127.1 145.02H127.16ZM127.62 174.56C128.82 173.62 132.36 170.7 133.42 171.62C134.48 172.54 133.56 174.48 133.42 177.24C135.64 178.3 140.24 180.32 138.44 181.6C136.678 182.461 134.786 183.028 132.84 183.28C132.5 186.18 132.52 187.66 131.54 188.16C130.86 188.48 129.36 187.26 128.8 186.74C127.724 185.821 126.782 184.758 126 183.58C124.173 183.8 122.327 183.8 120.5 183.58C120.02 183.46 119.66 183.24 119.76 182.76C119.98 181.66 122.46 179.32 123.28 178.54C122.76 177.4 121.54 174.54 121.96 173.4C122.56 171.82 125.14 173.56 127.56 174.56H127.62ZM121.12 110.12C121.54 110.12 121.76 110.42 121.7 110.94C121.282 112.424 120.648 113.839 119.82 115.14C120.678 116.038 121.411 117.047 122 118.14C124 122 121.22 121.02 117.1 120.14C116.129 121.584 114.894 122.833 113.46 123.82C111.6 124.74 111.18 120.82 110.86 118.6C108.04 117.86 105.8 117.96 105.22 116.82C104.64 115.68 108.96 113.94 110.2 113.38C110.06 111.38 109.2 108.7 110.92 108.78C112.663 109.307 114.264 110.223 115.6 111.46C117.358 110.724 119.221 110.272 121.12 110.12ZM95.64 166C95.4171 166.036 95.1891 166.023 94.9716 165.962C94.7538 165.901 94.552 165.794 94.38 165.648C94.208 165.501 94.0698 165.319 93.9749 165.114C93.8804 164.909 93.8313 164.686 93.8313 164.46C93.8313 164.234 93.8804 164.011 93.9749 163.805C94.0698 163.601 94.208 163.419 94.38 163.272C94.552 163.125 94.7538 163.018 94.9716 162.957C95.1891 162.897 95.4171 162.884 95.64 162.92C95.8633 162.884 96.0917 162.897 96.3091 162.957C96.5266 163.018 96.7284 163.125 96.9004 163.272C97.0724 163.419 97.2106 163.601 97.3055 163.805C97.4 164.011 97.4491 164.234 97.4491 164.46C97.4491 164.686 97.4 164.909 97.3055 165.114C97.2106 165.319 97.0724 165.501 96.9004 165.648C96.7284 165.794 96.5266 165.901 96.3091 165.962C96.0917 166.023 95.8633 166.036 95.64 166ZM84.36 105.58C84.2866 105.561 84.2211 105.519 84.1742 105.459C84.1276 105.4 84.1022 105.326 84.1022 105.25C84.1022 105.174 84.1276 105.1 84.1742 105.04C84.2211 104.981 84.2866 104.938 84.36 104.92C88.74 104.62 93.72 104.48 98.1 104.48C94.4498 101.92 90.5422 99.7477 86.44 98C86.3535 97.9731 86.28 97.9146 86.2342 97.836C86.1887 97.7571 86.1749 97.664 86.1949 97.5757C86.2153 97.4869 86.2684 97.4091 86.3436 97.3582C86.4186 97.3069 86.5102 97.2862 86.6 97.3C91.1466 97.3484 95.6185 98.4578 99.66 100.54C97.0018 97.8909 94.1902 95.3997 91.24 93.08C91.1771 93.0288 91.1342 92.9564 91.1196 92.8764C91.1051 92.7964 91.12 92.7138 91.1607 92.6437C91.2022 92.5735 91.2669 92.5204 91.344 92.4942C91.4207 92.4677 91.5047 92.4698 91.58 92.5C96.6218 94.1255 101.354 96.5866 105.58 99.78C109.752 102.837 113.371 106.584 116.28 110.86C116.28 111.04 116.1 111.18 115.98 111C113.073 106.752 109.461 103.032 105.3 100C101.594 97.2815 97.5109 95.1189 93.18 93.58C94.64 94.76 100.56 99.58 101.34 101.36C101.5 101.68 101.1 101.98 100.76 101.78C98.6244 100.59 96.3553 99.6571 94 99C92.1651 98.4509 90.2724 98.1153 88.36 98C90.66 99.1 97.8 102.6 99.26 104.68C99.2978 104.736 99.3185 104.801 99.3211 104.868C99.3236 104.935 99.3073 105.001 99.2738 105.059C99.2407 105.117 99.192 105.165 99.1327 105.197C99.0738 105.229 99.0073 105.244 98.94 105.24C98.72 105.24 93.2 105.24 87.34 105.44C94.26 106.76 103.34 109.3 109.12 113.44C109.28 113.56 109.12 113.8 108.92 113.68C102.64 109.3 91.78 106.58 84.36 105.58ZM197.6 146.88C204.42 141.74 217.94 140.38 223.86 146.88C225.603 148.58 226.973 150.624 227.883 152.883C228.792 155.143 229.22 157.566 229.14 160C228.673 164.411 226.778 168.548 223.74 171.78C223.38 172.14 223.38 171.78 223.5 171.6C223.845 171.105 224.072 170.54 224.167 169.945C224.262 169.35 224.222 168.741 224.048 168.165C223.875 167.588 223.575 167.058 223.168 166.614C222.762 166.17 222.26 165.823 221.7 165.6C217.92 163.88 216.78 170.22 214.02 171C211.62 171.7 212.52 166.1 212.7 162.36C212.952 160.716 212.573 159.037 211.64 157.66C209.978 155.877 207.925 154.508 205.64 153.66C201.635 152.047 197.287 151.476 193 152C194.17 149.999 195.735 148.257 197.6 146.88ZM192.86 176.7C189.56 168.9 191 158.54 191 158.54C191.162 156.436 191.768 154.391 192.78 152.54C197.102 152.101 201.463 152.79 205.44 154.54C207.603 155.35 209.553 156.643 211.14 158.32C213.14 160.96 211.14 166 211.78 169.94C212.02 171.48 212.74 172.46 214.24 171.94C217.34 171.06 218.38 165.18 221.36 166.54C224.34 167.9 223.8 171.8 220.28 173.28C218.92 173.86 219.04 175.16 220.08 175.28C220.62 175.28 221.68 174.98 223.3 173.68C225.673 171.361 227.538 168.577 228.78 165.5C231.562 166.087 234.252 167.041 236.78 168.34C240.34 169.96 244.54 172.22 247.86 174.16C242.8 175.367 238.188 177.987 234.562 181.717C230.935 185.445 228.445 190.128 227.38 195.22C226.62 195.22 226.68 194.14 226.16 193.74C225.64 193.34 225.32 193.74 224.7 193.94C224.713 193.447 224.603 192.96 224.38 192.52C224.38 191.36 222.48 192.04 221.38 192.4C221.393 191.903 221.318 191.41 221.16 190.94C221.62 189.46 218.94 190.2 217.44 190.62C217.553 190.052 217.553 189.468 217.44 188.9C217.58 187.74 215.04 188.48 213.98 188.9C214.072 188.232 214.03 187.552 213.86 186.9C213.3 186.12 210.34 187.76 210.22 187.02C210.23 186.472 210.338 185.93 210.54 185.42C210.88 184.2 209.22 184.96 208.74 184.88C208.722 184.89 208.702 184.897 208.68 184.897C208.658 184.897 208.638 184.89 208.62 184.88V184.64C210.293 184.181 211.9 183.51 213.4 182.64C214.163 183.763 215.307 184.573 216.62 184.92C217.813 185.275 219.083 185.278 220.278 184.93C221.473 184.58 222.542 183.892 223.355 182.95C224.168 182.008 224.692 180.85 224.863 179.618C225.035 178.385 224.847 177.128 224.32 176C224.32 175.78 223.88 176 223.98 176.14C224.24 176.907 224.34 177.717 224.278 178.523C224.217 179.33 223.992 180.115 223.618 180.833C223.243 181.55 222.728 182.185 222.103 182.698C221.478 183.212 220.757 183.593 219.98 183.82L215.14 180.84C214.96 180.72 214.98 180.84 213.92 181.52C213.255 180.207 213.077 178.701 213.417 177.268C213.758 175.837 214.595 174.573 215.78 173.7C217.178 172.763 218.84 172.3 220.52 172.38C220.56 172.367 220.595 172.341 220.62 172.307C220.645 172.273 220.658 172.232 220.658 172.19C220.658 172.148 220.645 172.107 220.62 172.073C220.595 172.038 220.56 172.013 220.52 172C218.72 171.781 216.897 172.168 215.34 173.1C213.927 174.038 212.912 175.47 212.495 177.115C212.077 178.758 212.285 180.5 213.08 182C209.535 184.017 205.468 184.93 201.4 184.62C199.45 184.072 197.658 183.068 196.173 181.692C194.688 180.313 193.553 178.603 192.86 176.7ZM224 194.46C224.525 194.347 225.037 194.173 225.52 193.94C226.4 193.62 226.16 195.38 227.28 195.4C227.08 196.34 226.96 197.08 226.9 197.54C225.96 197.2 225.08 196.82 224.2 196.46C224.238 195.787 224.172 195.112 224 194.46ZM224 194.02C224 194.02 224 193.92 224.2 193.24C224.25 193.492 224.352 193.73 224.5 193.94L224 194V194.02ZM223.8 194.4C223.698 195.063 223.698 195.737 223.8 196.4C222.4 195.82 221.1 195.22 219.8 194.62C219.8 194.241 219.725 193.868 219.58 193.52C220.5 193.52 223.58 192.04 223.72 192.48C223.86 192.92 223.14 194 223.8 194.4ZM219.38 193.38C219.377 193.692 219.423 194.003 219.52 194.3C219 194.06 216.86 192.98 216.32 192.7C216.31 192.273 216.243 191.848 216.12 191.44C217.318 191.275 218.503 191.013 219.66 190.66C219.8 190.66 220.7 190.54 220.62 190.66C220.54 191.24 218.5 192.92 219.38 193.38ZM215.88 192.46C214.86 191.92 213.88 191.4 213.12 190.92C213.133 190.495 213.058 190.073 212.9 189.68C213.223 189.735 213.553 189.678 213.84 189.52C214.76 189.101 215.752 188.863 216.76 188.82C216.337 189.308 215.975 189.845 215.68 190.42C215.602 191.107 215.67 191.801 215.88 192.46ZM212.66 190.66L210.44 189.32C210.485 188.727 210.425 188.132 210.26 187.56C210.9 187.7 212.56 187.04 213.32 187.1C212.958 187.59 212.632 188.105 212.34 188.64C212.34 189.327 212.448 190.008 212.66 190.66ZM213.52 187.76C213.47 188.158 213.47 188.561 213.52 188.96C213.38 188.96 212.92 189.18 212.88 188.96C212.84 188.74 213.28 188 213.52 187.76ZM217.04 189.48C217.028 189.872 217.075 190.263 217.18 190.64C216.873 190.753 216.548 190.815 216.22 190.82C216.22 190.82 216.14 190.54 217.04 189.48ZM220.88 191.48C220.907 191.808 220.98 192.132 221.1 192.44C220.702 192.592 220.295 192.718 219.88 192.82C220.12 192.46 220.44 192 220.88 191.46V191.48ZM209.86 187.32C209.85 187.92 209.925 188.52 210.08 189.1C209.74 188.892 209.405 188.672 209.08 188.44L208.62 185.08C209.12 185.08 210.16 184.78 210.16 185.08C210.16 185.38 209.32 186.7 209.86 187.3V187.32ZM214.14 181.92C214.42 181.74 214.72 181.52 215 181.3L219.4 184C218.423 184.197 217.412 184.113 216.482 183.758C215.552 183.405 214.74 182.795 214.14 182V181.92ZM192.72 199.68C192.24 199.54 195 195.26 195.32 194.76C196.3 193.18 201.04 185.86 201.44 185.26C203.093 185.357 204.752 185.257 206.38 184.96C206.7 196.8 208.84 201.72 211.44 206.34C210.1 205.92 208.74 206.54 207.56 206.12C205.9 205.56 205.96 203.16 203.56 203.02C201.992 203.205 200.483 203.73 199.14 204.56C198.6 204.78 198.48 204.56 198.34 204.32C198.142 202.967 197.848 201.63 197.46 200.32C196.54 198.74 193.66 200 192.72 199.68ZM142.86 257.12L152.3 262.82C151.75 263.34 151.155 263.808 150.52 264.22C148.98 265.04 147.38 264.42 147.36 265.64C138.74 268.94 125.76 284.16 141.94 298.06C162.62 315.8 186.16 322.88 164.26 339.8C158.26 344.5 152.08 343.8 144.94 339.18C137.1 334.04 137.18 311.4 129.66 297.42C117.16 274.16 112 282 87.84 264.52L142.86 257.12ZM170.64 341.12C170.613 341.12 170.588 341.115 170.563 341.105C170.54 341.095 170.517 341.08 170.498 341.061C170.48 341.043 170.465 341.02 170.455 340.997C170.445 340.972 170.44 340.947 170.44 340.92C170.44 340.893 170.445 340.868 170.455 340.843C170.465 340.818 170.48 340.797 170.498 340.778C170.517 340.76 170.54 340.745 170.563 340.735C170.588 340.725 170.613 340.72 170.64 340.72C170.68 340.733 170.715 340.758 170.74 340.793C170.765 340.827 170.778 340.868 170.778 340.91C170.778 340.952 170.765 340.993 170.74 341.027C170.715 341.061 170.68 341.087 170.64 341.1V341.12ZM160.4 347.12C160.316 347.135 160.23 347.133 160.148 347.112C160.065 347.09 159.988 347.05 159.923 346.997C159.857 346.941 159.804 346.873 159.768 346.797C159.732 346.72 159.713 346.635 159.713 346.55C159.713 346.465 159.732 346.38 159.768 346.303C159.804 346.227 159.857 346.158 159.923 346.103C159.988 346.048 160.065 346.01 160.148 345.988C160.23 345.967 160.316 345.965 160.4 345.98C160.562 345.98 160.717 346.045 160.832 346.158C160.946 346.273 161.01 346.428 161.01 346.59C161.01 346.752 160.946 346.907 160.832 347.021C160.717 347.135 160.562 347.2 160.4 347.2V347.12ZM134.64 345.72C134.845 345.127 135.149 344.572 135.54 344.08C134.64 342.84 134.1 342.22 135.66 342.3C136.117 342.333 136.568 342.428 137 342.58C138.6 340.82 138.88 340.94 138.82 343.34C139.22 343.54 140.16 344.02 140.34 344.42C140.52 344.82 139.5 345.06 138.78 345.28C138.78 345.76 138.6 347.28 138.14 347.28C137.68 347.28 137.42 346.54 136.82 345.78C136 346 134.54 346.52 134.64 345.8V345.72ZM134.38 320.24C134.296 320.255 134.21 320.253 134.128 320.232C134.045 320.21 133.968 320.17 133.903 320.117C133.837 320.061 133.784 319.993 133.748 319.917C133.712 319.84 133.693 319.755 133.693 319.67C133.693 319.585 133.712 319.5 133.748 319.423C133.784 319.347 133.837 319.278 133.903 319.223C133.968 319.168 134.045 319.13 134.128 319.108C134.21 319.087 134.296 319.085 134.38 319.1C134.542 319.1 134.697 319.165 134.812 319.278C134.926 319.393 134.99 319.548 134.99 319.71C134.99 319.872 134.926 320.027 134.812 320.141C134.697 320.255 134.542 320.32 134.38 320.32V320.24ZM110.22 291.24C110.136 291.255 110.05 291.253 109.968 291.232C109.885 291.21 109.808 291.17 109.743 291.117C109.677 291.061 109.624 290.993 109.588 290.917C109.552 290.84 109.533 290.755 109.533 290.67C109.533 290.585 109.552 290.5 109.588 290.423C109.624 290.347 109.677 290.278 109.743 290.223C109.808 290.168 109.885 290.13 109.968 290.108C110.05 290.087 110.136 290.085 110.22 290.1C110.304 290.085 110.39 290.087 110.473 290.108C110.555 290.13 110.632 290.168 110.698 290.223C110.763 290.278 110.816 290.347 110.852 290.423C110.889 290.5 110.908 290.585 110.908 290.67C110.908 290.755 110.889 290.84 110.852 290.917C110.816 290.993 110.763 291.061 110.698 291.117C110.632 291.17 110.555 291.21 110.473 291.232C110.39 291.253 110.304 291.255 110.22 291.24ZM102.22 278.76C102.136 278.775 102.05 278.773 101.968 278.752C101.885 278.73 101.808 278.69 101.743 278.637C101.677 278.581 101.624 278.513 101.588 278.437C101.552 278.36 101.533 278.275 101.533 278.19C101.533 278.105 101.552 278.02 101.588 277.943C101.624 277.867 101.677 277.798 101.743 277.743C101.808 277.688 101.885 277.65 101.968 277.628C102.05 277.607 102.136 277.603 102.22 277.62C102.303 277.6 102.389 277.6 102.472 277.617C102.555 277.635 102.633 277.67 102.701 277.72C102.769 277.772 102.825 277.837 102.865 277.912C102.905 277.987 102.928 278.07 102.932 278.153C102.937 278.238 102.923 278.323 102.891 278.401C102.859 278.481 102.81 278.552 102.748 278.61C102.686 278.667 102.612 278.71 102.531 278.737C102.45 278.763 102.364 278.77 102.28 278.76H102.22ZM78.76 274.76C78.844 274.745 78.9302 274.747 79.0127 274.768C79.0953 274.79 79.172 274.828 79.2378 274.883C79.3033 274.938 79.356 275.007 79.3924 275.083C79.4287 275.16 79.4476 275.245 79.4476 275.33C79.4476 275.415 79.4287 275.5 79.3924 275.577C79.356 275.653 79.3033 275.721 79.2378 275.777C79.172 275.83 79.0953 275.87 79.0127 275.892C78.9302 275.913 78.844 275.915 78.76 275.9C78.676 275.91 78.5906 275.903 78.5098 275.877C78.4287 275.85 78.3549 275.807 78.2927 275.75C78.2306 275.692 78.1818 275.621 78.1498 275.541C78.1182 275.463 78.104 275.378 78.108 275.293C78.1127 275.21 78.1356 275.127 78.1756 275.052C78.2156 274.977 78.2716 274.912 78.3393 274.86C78.4073 274.81 78.4855 274.775 78.5687 274.757C78.6516 274.74 78.7378 274.74 78.82 274.76H78.76ZM65.58 234.76C66.4073 234.093 67.3498 233.585 68.36 233.26C68.36 230.66 68.16 229.26 70.22 230.8C70.8218 231.29 71.3596 231.855 71.82 232.48C72.7487 232.198 73.7106 232.045 74.68 232.02C74.96 232.02 75.14 232.18 75.12 232.46C74.7786 233.492 74.2644 234.458 73.6 235.32C74.1771 236.217 74.5335 237.238 74.64 238.3C74.46 239.28 72.92 238.42 71.68 238.06C71.14 238.7 69.48 240.82 68.86 240.34C68.24 239.86 68.58 238.62 68.5 236.94C67.28 236.5 64.8 235.7 65.64 234.76H65.58ZM58.22 252.4C58.304 252.383 58.3902 252.387 58.4727 252.408C58.5553 252.43 58.632 252.468 58.6978 252.523C58.7633 252.578 58.816 252.647 58.8524 252.723C58.8887 252.8 58.9076 252.885 58.9076 252.97C58.9076 253.055 58.8887 253.14 58.8524 253.217C58.816 253.293 58.7633 253.361 58.6978 253.417C58.632 253.47 58.5553 253.51 58.4727 253.532C58.3902 253.553 58.304 253.555 58.22 253.54C58.136 253.55 58.0506 253.543 57.9698 253.517C57.8887 253.49 57.8149 253.447 57.7527 253.39C57.6906 253.332 57.6418 253.261 57.6098 253.181C57.5782 253.103 57.564 253.018 57.568 252.933C57.5727 252.85 57.5956 252.767 57.6356 252.692C57.6756 252.617 57.7316 252.552 57.7993 252.5C57.8673 252.45 57.9455 252.415 58.0287 252.397C58.1116 252.38 58.1978 252.38 58.28 252.4H58.22ZM251.12 318.82C243.8 328.36 134.5 381.4 123.86 386.538C98.88 356.88 60 302.8 37.2 271.24L57.8 268.54C70.64 288.8 90.32 284.1 100.88 290.54C112.76 297.8 118.88 303.28 122.48 317.36C127.38 336.5 121.2 344.76 135.52 350.86C149.24 356.68 176.48 354.34 187.52 335.4C198.56 316.46 176.94 308.18 157.52 299.4C138.1 290.62 141.52 278.46 144.16 275.02C146.176 272.403 148.515 270.05 151.12 268.02C152.106 268.023 153.075 267.768 153.931 267.28C154.787 266.793 155.5 266.09 156 265.24C158.34 266.5 247.1 316.52 251.18 318.82H251.12ZM177.12 342.4C177.147 342.4 177.172 342.405 177.197 342.415C177.222 342.425 177.243 342.44 177.262 342.458C177.28 342.477 177.295 342.498 177.305 342.523C177.315 342.548 177.32 342.573 177.32 342.6C177.32 342.627 177.315 342.652 177.305 342.677C177.295 342.7 177.28 342.723 177.262 342.741C177.243 342.76 177.222 342.775 177.197 342.785C177.172 342.795 177.147 342.8 177.12 342.8C177.093 342.798 177.068 342.792 177.045 342.781C177.02 342.77 177 342.753 176.982 342.735C176.963 342.715 176.95 342.692 176.942 342.667C176.933 342.641 176.928 342.617 176.93 342.59C176.932 342.563 176.938 342.538 176.95 342.513C176.96 342.49 176.977 342.468 176.997 342.452C177.015 342.433 177.038 342.42 177.063 342.412C177.088 342.403 177.113 342.398 177.14 342.4H177.12ZM182.24 322.14C182 322.3 181.64 322.14 181.08 321.86C180.2 322.84 179.78 323.12 179.88 321.46C179.02 321.18 178.54 321.04 179.34 320.58C179.58 320.45 179.835 320.348 180.1 320.28C180.32 318.9 180.5 318.88 181.26 320.04C181.628 319.95 182.012 319.95 182.38 320.04C182.66 320.2 182.2 320.58 181.88 320.96C182 321.24 182.48 322 182.26 322.14H182.24ZM152.72 266.82C151.949 267.075 151.121 267.107 150.332 266.912C149.543 266.717 148.825 266.305 148.26 265.72H148.44C152.22 265.14 151.66 263.58 153.62 262.62C153.8 262.82 153.62 262.76 156.8 263C155.997 264.761 154.531 266.135 152.72 266.82ZM157.34 258.82C157.051 259.358 156.939 259.975 157.02 260.58C157.02 260.72 156.88 261.36 156.8 261.96L154.64 261.78C154.64 261.68 156.06 258.3 156.16 257.98H157.52L157.34 258.82ZM156.94 253.2C155.56 255.78 154.94 260.58 153.72 259.74C153.294 259.298 153.051 258.713 153.04 258.1C152.976 256.947 153.139 255.792 153.52 254.7C153.847 253.555 154.42 252.495 155.201 251.597C155.983 250.698 156.952 249.981 158.04 249.5C156.98 253.58 157.28 252.66 156.94 253.28V253.2ZM158.38 256.22C158.7 255.28 159.14 253.9 159.76 252.1C160.02 251.96 160.08 252.1 160.42 252.94C160.96 254.34 157.8 257.9 157.8 257.9C158 257.32 158.22 256.76 158.38 256.3V256.22ZM214.86 221.56C207.8 232.18 202.56 236.94 194.32 241.56C186.288 245.833 177.747 249.072 168.9 251.2C165.34 252.3 162.36 260.2 158.46 260.56C158.02 260.56 157.72 260.56 158.08 259.56C158.98 257.06 162.24 254.98 161.3 252.6C161.181 252.241 161.02 251.9 160.82 251.58C160.658 251.318 160.411 251.12 160.12 251.02C160.24 250.62 160.64 249.46 161.18 247.82C161.64 247.5 161.96 247.4 164.06 246.16C171.1 242 173.86 234.54 179.78 227.56C182.907 223.735 186.557 220.368 190.62 217.56C190.92 217.38 190.42 217.68 192.74 210.36C194.08 206.14 195.64 201.68 196.1 200.36C196.187 200.372 196.27 200.403 196.342 200.452C196.415 200.5 196.477 200.565 196.52 200.64C197.04 201.62 196.94 203.5 197.38 204.64C198.42 207.16 201 203.78 203.38 203.84C205.38 203.84 205.38 206.14 207.38 206.72C208.88 207.16 210.38 206.24 211.78 206.9C213.615 210.018 215.773 212.935 218.22 215.6C217.312 217.723 216.185 219.748 214.86 221.64V221.56ZM227.14 222.2C221.087 217.872 216.027 212.301 212.3 205.86C209.84 201.58 207.56 196.8 206.78 184.8C207.252 184.718 207.72 184.61 208.18 184.48L208.6 188.48C210.803 190.148 213.13 191.645 215.56 192.96C215.56 192.96 213.86 202.58 221.56 214.96C225.26 221.04 227.14 222.28 227.14 222.28V222.2ZM264.32 248C264.68 252.36 260.72 276.16 260.18 279.4C260.148 279.412 260.12 279.43 260.095 279.455C260.072 279.478 260.052 279.508 260.04 279.54C260.3 278.56 255.8 293.7 255.46 298.44C255.46 298.82 255.46 298.64 258.88 301.6C260.04 302.62 264.02 306 264.22 307.18C264.312 307.487 264.312 307.813 264.22 308.12C262.433 306.227 260.302 304.693 257.94 303.6C257.898 303.573 257.847 303.565 257.798 303.577C257.748 303.587 257.707 303.617 257.68 303.66C257.653 303.701 257.645 303.753 257.657 303.801C257.668 303.852 257.698 303.893 257.74 303.92L259.36 305.24C260.98 306.34 262.47 307.621 263.8 309.06C263.6 309.56 263.16 309.6 262.64 309.46C262.64 308.42 258.08 305.9 256.64 305.04C256.42 304.92 256.22 305.24 256.44 305.36C258.448 306.52 260.32 307.901 262.02 309.48C261.38 310.92 259.44 308.86 252.38 305.96C251.108 305.388 249.762 304.997 248.38 304.8C248.287 304.793 248.193 304.817 248.115 304.868C248.035 304.918 247.973 304.992 247.94 305.08C247.76 305.6 248.32 305.58 250.12 307.4C250.503 307.735 250.833 308.127 251.1 308.56C249.902 308.701 248.692 308.418 247.68 307.76C246.878 307.223 246.247 306.472 245.857 305.59C245.467 304.708 245.337 303.733 245.48 302.78C245.82 300.78 247.8 299.76 246.98 297.98C246.16 296.2 244.48 284.64 244.24 282.98C242.02 267.96 242.86 267.64 242.44 267.52C242.44 246.68 243.1 246.6 242.94 245.52C242.94 245.3 238.46 214.54 238.42 214.3C239.74 214.3 240.68 215.76 241.42 216.96C242.5 218.68 243.42 219.8 245.58 219.14C247.74 218.48 249.58 216.66 251.58 215.94C253.58 215.22 254.64 215.94 256.82 216.64C257.66 217.041 258.608 217.155 259.52 216.963C260.43 216.772 261.253 216.285 261.86 215.58C265.34 212.68 263.7 211.96 270.82 214.76C269.44 220.14 266.34 235.34 266.28 235.58C265.017 239.6 264.357 243.785 264.32 248ZM238.18 213.32C236.612 213.887 235.082 214.553 233.6 215.32C233.26 215.32 233.12 215.32 233.02 214.92C232.4 212.06 239.68 178.2 257.82 176.92C266.1 176.36 271.82 191.22 274.32 199.14C275.965 204.173 277.242 209.321 278.14 214.54C278.5 218.16 267.94 211.38 264.9 212.08C263.7 212.36 263.16 213.38 261.44 214.82C259.72 216.26 258.84 216.26 257.32 215.72C255.525 214.737 253.42 214.478 251.44 215C249.32 215.76 247.56 217.54 245.44 218.2C243.64 218.78 243.08 217.54 242.06 215.94C241.04 214.34 240 212.98 238.18 213.24V213.32ZM267.98 232.2C268.82 228.88 270.3 222 271.4 214.8C273.24 215.52 277.26 217.28 278.6 216C278.8 215.787 278.943 215.527 279.02 215.245C279.097 214.961 279.103 214.665 279.04 214.38C278.315 210.158 277.313 205.99 276.04 201.9C273.36 193 267.1 175.9 257.78 176.48C238.86 177.8 231.48 211.94 232.12 215.02C232.138 215.218 232.202 215.408 232.307 215.578C232.41 215.748 232.552 215.892 232.72 215.998C232.888 216.103 233.078 216.17 233.277 216.192C233.473 216.213 233.673 216.188 233.86 216.12C235 215.84 236.62 214.6 238.1 214.26C238.32 217.9 238.74 222.74 239.62 229C236.247 227.673 232.988 226.067 229.88 224.2C223.605 218.105 219.182 210.361 217.12 201.86C216.417 199.078 216.015 196.228 215.92 193.36C219.552 195.388 223.322 197.158 227.2 198.66C227.265 198.685 227.333 198.695 227.403 198.688C227.472 198.681 227.538 198.66 227.597 198.621C227.655 198.585 227.703 198.535 227.74 198.475C227.775 198.417 227.795 198.348 227.8 198.28C228.532 192.63 230.927 187.325 234.68 183.04C238.505 178.801 243.587 175.9 249.18 174.76C249.27 174.745 249.353 174.701 249.418 174.638C249.483 174.573 249.527 174.49 249.542 174.4C249.558 174.31 249.545 174.217 249.505 174.135C249.465 174.052 249.4 173.983 249.32 173.94C245.358 171.653 241.272 169.59 237.08 167.76C234.483 166.553 231.76 165.641 228.96 165.04C229.502 163.548 229.865 161.997 230.04 160.42C234.04 158.72 254.22 161.22 267.82 159.8C269.88 159.672 271.923 159.344 273.92 158.82C286.18 158.48 304.64 173.56 308.04 180.36C311.44 187.16 310.9 195.66 303.36 206.24C296.26 216.14 270.74 230.58 268 232.12L267.98 232.2ZM322.4 272.58C325.18 263.82 320.78 255.62 319.2 253.08L332.44 252.72C334.145 253.728 335.445 255.298 336.12 257.16C337.205 259.948 337.781 262.908 337.82 265.9C333.86 267.68 326.52 271.04 322.4 272.5V272.58ZM338.68 265.36C338.57 262.43 337.892 259.55 336.68 256.88C335.878 254.997 334.47 253.433 332.68 252.44C333.478 251.583 334.445 250.901 335.52 250.44C335.52 251.08 334.74 252.44 335.68 252.58C336.62 252.72 336.72 251.8 337.3 251.5C337.54 251.38 338.02 251.36 337.82 251.88C337.62 252.4 337.18 253.18 337.64 253.88C337.978 254.278 338.445 254.547 338.96 254.64C339.08 254.64 338.28 255.2 338.06 255.84C338.008 255.992 338.017 256.157 338.083 256.301C338.15 256.448 338.272 256.561 338.42 256.62C339.1 256.88 340.28 256.2 341.02 256.94C341.32 257.26 341.16 257.56 340.78 257.78C339.86 258.36 339.74 259.04 340.6 259.78C341.032 260.08 341.417 260.445 341.74 260.86C341.112 260.855 340.5 261.06 340 261.44C339.905 261.513 339.828 261.607 339.775 261.713C339.721 261.821 339.693 261.94 339.693 262.06C339.693 262.18 339.721 262.298 339.775 262.405C339.828 262.513 339.905 262.607 340 262.68C340.44 263.06 341.52 263.46 341.76 263.8C340.808 264.435 339.772 264.933 338.68 265.28V265.36ZM362.94 251.52C362.12 254.86 344.12 262.92 342.84 263.52C342.62 262.74 341.36 262.36 340.84 261.98C341.4 261.68 342.52 261.8 342.74 261.1C342.96 260.4 341.4 259.24 341.04 258.78C341.38 258.46 342.6 257.88 342.06 256.78C341.815 256.367 341.445 256.041 341.002 255.85C340.56 255.66 340.07 255.615 339.6 255.72H339.3C339.74 255.16 340.46 254.44 339.8 253.96C339.14 253.48 338.7 253.96 338.36 253.3C340.26 253.54 341.82 253.8 343.02 254.06C343.06 254.065 343.102 254.063 343.14 254.052C343.178 254.04 343.215 254.02 343.245 253.993C343.275 253.967 343.3 253.933 343.315 253.897C343.332 253.86 343.34 253.82 343.34 253.78C343.34 254.58 342.78 249.16 345.62 248.52C346.888 248.387 348.17 248.567 349.352 249.043C350.535 249.521 351.581 250.283 352.4 251.26C352.447 251.318 352.51 251.363 352.58 251.387C352.652 251.412 352.727 251.417 352.8 251.4C353.54 251.26 359.68 250 362.14 250.9C362.42 250.88 363 251.16 362.94 251.44V251.52Z" fill="black"/>
</svg>
