<svg width="400" height="400" viewBox="0 0 400 400" fill="none" xmlns="http://www.w3.org/2000/svg">
<path fill-rule="evenodd" clip-rule="evenodd" d="M110.12 155.7C110.484 155.871 110.879 155.967 111.28 155.984C111.682 156.001 112.083 155.939 112.46 155.8C112.534 155.782 112.6 155.739 112.646 155.68C112.693 155.62 112.719 155.546 112.719 155.47C112.719 155.394 112.693 155.32 112.646 155.261C112.6 155.201 112.534 155.159 112.46 155.14C110.906 154.471 109.584 153.358 108.66 151.94C108.636 151.867 108.588 151.804 108.524 151.762C108.46 151.72 108.383 151.7 108.307 151.707C108.23 151.714 108.158 151.747 108.102 151.8C108.047 151.853 108.011 151.924 108 152C107.904 152.763 108.058 153.537 108.441 154.205C108.823 154.873 109.413 155.397 110.12 155.7ZM260.62 106.88C242.62 109.22 230.78 110.88 230.78 110.88C230.46 110.88 230.58 111.2 230.58 111.52V200.4C230.58 200.56 231.08 200.7 231.26 200.72C246.08 202.4 267.92 204.08 290.3 205.58C305.5 206.58 379 210.54 379 210.54C379.207 210.54 379.407 210.462 379.56 210.32C379.64 210.252 379.705 210.165 379.753 210.068C379.796 209.972 379.818 209.867 379.818 209.76C379.938 202.26 381.378 95.34 381.378 95.34C381.378 95.2276 381.356 95.1167 381.313 95.0138C381.265 94.9109 381.2 94.8174 381.12 94.74C381.04 94.6607 380.942 94.5989 380.836 94.5578C380.727 94.5167 380.615 94.4967 380.498 94.5C356.88 95.98 329.94 98.62 305.48 101.38C288.76 103.32 273.18 105.24 260.62 106.88ZM379.72 96.28L378.24 208.98C374.36 208.82 305.58 205.42 290.36 204.52C268.14 203.2 246.36 201.7 231.58 200.16V112.16C234.86 111.7 304.66 103.06 320.64 101.4C340.46 99.32 361.08 97.44 379.72 96.28Z" fill="black"/>
<path fill-rule="evenodd" clip-rule="evenodd" d="M263.12 153.74C263.078 163.849 267.04 173.563 274.14 180.76C277.655 184.335 281.846 187.175 286.47 189.115C291.093 191.053 296.057 192.052 301.07 192.052C306.083 192.052 311.046 191.053 315.672 189.115C320.295 187.175 324.486 184.335 328 180.76C333.353 175.343 336.965 168.452 338.373 160.968C339.782 153.484 338.92 145.751 335.9 138.76C338.618 138.769 341.283 138.002 343.578 136.548C345.875 135.093 347.708 133.013 348.862 130.552C350.015 128.091 350.442 125.351 350.09 122.656C349.738 119.96 348.625 117.422 346.878 115.339C345.132 113.256 342.826 111.715 340.233 110.899C337.642 110.082 334.87 110.023 332.245 110.73C329.62 111.436 327.252 112.878 325.418 114.885C323.586 116.893 322.365 119.382 321.9 122.06C316.178 118.328 309.557 116.207 302.732 115.921C295.905 115.635 289.13 117.194 283.115 120.435C277.102 123.675 272.072 128.477 268.557 134.334C265.042 140.192 263.17 146.889 263.14 153.72L263.12 153.74ZM332.16 121.48L334.54 126.88L339.42 114.56L342.14 116.26L336.5 131.5L332.5 131.88L329.14 124.54L332.16 121.48ZM301.06 116.6C308.465 116.62 315.682 118.933 321.72 123.22V124.54C321.72 128.057 323.022 131.449 325.375 134.064C327.727 136.678 330.963 138.329 334.46 138.7C337.44 145.494 338.313 153.026 336.965 160.321C335.618 167.617 332.112 174.34 326.9 179.62C323.532 183.032 319.518 185.74 315.095 187.588C310.672 189.437 305.925 190.388 301.13 190.388C296.337 190.388 291.59 189.437 287.165 187.588C282.742 185.74 278.73 183.032 275.36 179.62C268.545 172.713 264.71 163.409 264.677 153.707C264.643 144.004 268.413 134.674 275.18 127.72C278.533 124.232 282.55 121.451 286.995 119.541C291.44 117.631 296.223 116.631 301.06 116.6Z" fill="black"/>
<path fill-rule="evenodd" clip-rule="evenodd" d="M279.66 139.16L286.36 139.34C286.48 140.28 290.36 166 290.36 166C290.388 166.193 290.485 166.369 290.632 166.497C290.779 166.626 290.965 166.697 291.16 166.7L314.4 166.2C314.473 166.182 314.539 166.139 314.587 166.079C314.633 166.02 314.659 165.946 314.659 165.87C314.659 165.794 314.633 165.72 314.587 165.66C314.539 165.6 314.473 165.558 314.4 165.54C314.4 165.54 302.78 165.16 300.4 165.12H291.8C291.68 164.3 291.44 162.8 291.14 160.9C293.14 160.9 312.42 160.42 312.42 160.42C312.612 160.417 312.797 160.344 312.94 160.215C313.083 160.087 313.177 159.911 313.2 159.72L315.2 145.56C315.212 145.445 315.202 145.329 315.167 145.219C315.132 145.109 315.075 145.007 315 144.92C314.923 144.832 314.827 144.761 314.72 144.713C314.613 144.664 314.497 144.64 314.38 144.64C314.38 144.64 290.38 145.18 288.56 145.26C287.34 138.48 287.42 138.3 286.78 138.3L279.58 138.56C279.49 138.56 279.403 138.596 279.34 138.659C279.275 138.723 279.24 138.81 279.24 138.9C279.24 138.99 279.275 139.077 279.34 139.14C279.403 139.204 279.49 139.24 279.58 139.24L279.66 139.16ZM305.52 158.34V159.1C304.88 159.1 299.34 159.5 297.36 159.66C297.365 157.602 297.19 155.548 296.84 153.52L305.74 153.32C305.527 154.984 305.453 156.663 305.52 158.34ZM307.8 147.34V146.2H313.54L312.74 152H311.06C310.1 152 308.9 151.9 307.58 151.88C307.75 150.373 307.823 148.856 307.8 147.34ZM307.42 153.34C308.82 153.24 310.08 153.12 311.08 153.02L312.62 152.86L311.8 158.86L306.42 159.14C306.42 158.96 306.42 158.76 306.56 158.54C306.985 156.799 307.272 155.026 307.42 153.24V153.34ZM306.9 146.3C306.433 148.112 306.105 149.957 305.92 151.82L296.62 152.08C296.345 150.049 295.91 148.043 295.32 146.08C299.62 146.14 302.6 146.18 306.9 146.2V146.3ZM296.56 159.82L291.14 160.22C290.8 158.22 290.42 155.84 290.02 153.42L292.2 153.54H295.2C295.475 155.635 295.93 157.703 296.56 159.72V159.82ZM294.56 146.12C294.575 148.13 294.742 150.135 295.06 152.12L292.26 152.36L289.96 152.58C289.8 151.56 289.04 147.1 288.84 145.94C289.84 146 292 146 294.48 146L294.56 146.12Z" fill="black"/>
<path fill-rule="evenodd" clip-rule="evenodd" d="M389.742 86.38C389.658 86.3033 389.56 86.2447 389.455 86.2069C389.345 86.1691 389.233 86.1531 389.12 86.16C362.84 87.86 332.86 90.88 305.64 94.04C287.02 96.2 222.5 104.9 222.5 104.9C222.18 104.9 222.34 105.22 222.34 105.54V207.4C222.34 207.56 222.86 207.7 223.04 207.72C239.3 209.6 263.2 211.5 287.76 213.18C288.28 215.18 290.46 223.18 291.52 229.34C291.893 231.21 292.073 233.113 292.06 235.02C292.077 235.363 291.993 235.703 291.82 236C289.82 238 278.44 241.5 278.1 241.64C277.932 241.69 277.785 241.797 277.687 241.943C277.588 242.09 277.543 242.265 277.56 242.44L277.88 246.32C277.89 246.5 277.963 246.67 278.088 246.798C278.213 246.927 278.382 247.005 278.56 247.02C325.34 253.26 322.56 253.16 322.98 253.02C327.063 251.3 331.02 249.295 334.82 247.02C335.997 246.297 337.078 245.43 338.04 244.44C338.583 243.908 338.919 243.198 338.98 242.44C338.535 239.592 337.867 236.783 336.98 234.04C334.98 227.3 332.2 218.64 331.32 216.04L387.44 219.02C387.545 219.028 387.655 219.013 387.756 218.975C387.855 218.938 387.945 218.878 388.022 218.8C388.098 218.73 388.16 218.643 388.2 218.547C388.244 218.45 388.262 218.345 388.262 218.24C388.4 209.64 390 87.12 390 87.12C390.018 86.9851 390 86.8476 389.956 86.7193C389.913 86.5909 389.84 86.4749 389.742 86.38ZM300.76 248.38L279.38 245.5L279.16 242.88H279.34C281 243.12 293.44 244.72 295.92 245C301.3 245.6 320.62 247.54 321.92 247.66C321.628 248.87 321.628 250.13 321.92 251.34L300.76 248.38ZM335.8 234.26C336.605 236.873 337.193 239.55 337.56 242.26C337.488 242.645 337.283 242.992 336.98 243.24C336.08 244.115 335.08 244.88 334 245.52C330.572 247.561 327.01 249.372 323.34 250.94C323.505 249.747 323.408 248.533 323.06 247.38C324.1 246.94 327.68 245.38 330.88 243.84C332.703 243.013 334.45 242.03 336.1 240.9C336.132 240.87 336.155 240.835 336.172 240.795C336.188 240.755 336.198 240.713 336.198 240.67C336.198 240.627 336.188 240.585 336.172 240.545C336.155 240.505 336.132 240.47 336.1 240.44C336.037 240.377 335.95 240.341 335.86 240.341C335.77 240.341 335.683 240.377 335.62 240.44C334.38 241.217 333.075 241.885 331.72 242.44C328.06 244.02 323.3 245.8 322.32 246.16C321.44 246.16 282.98 242.36 281.08 242.16C293.08 237.98 293.08 236.82 293.26 235.02C293.24 233.001 293.005 230.99 292.56 229.02C291.4 223.02 289.1 215.42 288.4 213.02L331.3 216H330.6C331.3 218.22 334 227.3 335.8 234.3V234.26ZM386.702 217.24C382.56 217.06 305.74 213.24 288.8 212.1C264.06 210.56 239.82 208.84 223.34 207.06V106.12C226.84 105.62 304.7 95.68 322.48 93.76C344.48 91.38 367.582 89.2 388.342 87.88L386.702 217.24Z" fill="black"/>
<path fill-rule="evenodd" clip-rule="evenodd" d="M322.54 236.44C321.46 236.44 306.92 235.72 305.58 235.7C304.24 235.68 297.08 235.7 297.08 235.7C297.035 235.697 296.99 235.703 296.948 235.718C296.907 235.733 296.867 235.755 296.833 235.785C296.8 235.815 296.773 235.852 296.753 235.892C296.733 235.932 296.723 235.975 296.72 236.02C296.72 236.107 296.753 236.19 296.813 236.253C296.872 236.317 296.953 236.355 297.04 236.36C297.9 236.36 308.94 237.74 322.48 237.92H330.98C331.023 237.925 331.067 237.922 331.107 237.91C331.148 237.897 331.187 237.877 331.218 237.848C331.252 237.818 331.277 237.783 331.293 237.745C331.312 237.705 331.32 237.663 331.32 237.62C331.323 237.575 331.317 237.53 331.302 237.488C331.287 237.447 331.265 237.407 331.235 237.373C331.205 237.34 331.168 237.313 331.128 237.293C331.088 237.273 331.045 237.263 331 237.26C331 237.26 324.5 236.6 322.54 236.44ZM358.46 161L360.64 165L362.38 163.74L360.28 160.12L363.54 158.54L354.82 150.84L355.32 162.52L358.46 161ZM348.7 172.92C348.68 172.958 348.668 173.002 348.665 173.045C348.663 173.09 348.67 173.133 348.685 173.175C348.7 173.217 348.723 173.253 348.753 173.285C348.783 173.318 348.82 173.343 348.86 173.36C349.555 173.863 350.277 174.332 351.02 174.76C351.86 175.24 353.78 176.1 354.68 176.46C355.22 176.68 358.32 177.82 358.56 177.3C358.58 177.262 358.592 177.218 358.595 177.175C358.597 177.13 358.59 177.087 358.575 177.045C358.56 177.003 358.537 176.967 358.507 176.935C358.477 176.902 358.44 176.877 358.4 176.86L357.54 176.26C355.33 174.848 352.925 173.77 350.4 173.06C349.62 172.84 349.14 172.76 349.14 172.76C349.06 172.725 348.97 172.722 348.888 172.752C348.807 172.782 348.738 172.842 348.7 172.92ZM340.86 190.32C339.707 188.448 338.078 186.917 336.14 185.88C336.11 185.85 336.073 185.825 336.035 185.81C335.995 185.793 335.953 185.785 335.91 185.785C335.867 185.785 335.825 185.793 335.785 185.81C335.747 185.825 335.71 185.85 335.68 185.88C335.65 185.91 335.627 185.947 335.61 185.985C335.593 186.025 335.585 186.067 335.585 186.11C335.585 186.153 335.593 186.195 335.61 186.235C335.627 186.273 335.65 186.31 335.68 186.34C335.813 186.623 335.968 186.898 336.14 187.16C337.292 188.957 338.882 190.43 340.76 191.44C340.788 191.473 340.823 191.5 340.863 191.52C340.903 191.538 340.947 191.547 340.99 191.547C341.033 191.547 341.077 191.538 341.117 191.52C341.157 191.5 341.192 191.473 341.22 191.44C341.278 191.377 341.31 191.295 341.31 191.21C341.31 191.125 341.278 191.043 341.22 190.98L340.86 190.32ZM256.54 165.02C256.492 164.948 256.417 164.895 256.333 164.873C256.248 164.851 256.158 164.861 256.08 164.9C251.915 166.453 248.03 168.675 244.58 171.48C244.508 171.528 244.455 171.603 244.433 171.687C244.412 171.772 244.42 171.862 244.46 171.94C244.507 172.017 244.58 172.072 244.665 172.093C244.752 172.117 244.843 172.103 244.92 172.06C249.077 170.487 252.958 168.265 256.42 165.48C256.493 165.431 256.545 165.357 256.567 165.273C256.588 165.188 256.58 165.098 256.54 165.02ZM266 181.48C264.08 182.615 262.29 183.957 260.66 185.48C254.48 190.86 256.08 190.98 256.42 190.66C256.42 190.66 256.98 190.34 257.84 189.76C261.032 187.55 263.928 184.942 266.46 182C266.493 181.972 266.52 181.938 266.54 181.9C266.56 181.863 266.572 181.822 266.575 181.778C266.578 181.735 266.575 181.693 266.562 181.652C266.548 181.61 266.528 181.573 266.5 181.54C266.473 181.507 266.438 181.48 266.4 181.46C266.363 181.44 266.322 181.428 266.278 181.425C266.235 181.422 266.193 181.425 266.152 181.438C266.112 181.452 266.073 181.472 266.04 181.5L266 181.48ZM297.22 272.48C295.62 271.388 293.858 270.552 292 270C291.93 269.663 291.795 269.343 291.6 269.06C291.245 268.582 290.797 268.18 290.28 267.88C288.52 266.883 286.573 266.263 284.56 266.06C282.053 265.748 279.508 266.072 277.16 267C273.4 268.56 264.18 274.22 253.9 277.9C248.627 279.945 243.035 281.042 237.38 281.14C229.67 281.18 221.983 282.003 214.44 283.6C204.62 285.6 195.84 288.24 192.7 290.18L186.44 281.06H186.62C188.013 280.522 189.353 279.852 190.62 279.06C191.543 278.565 192.353 277.885 193 277.06C193.045 276.988 193.068 276.905 193.068 276.82C193.068 276.735 193.045 276.652 193 276.58C192.932 276.455 192.817 276.362 192.68 276.32C192.468 276.185 192.239 276.078 192 276C189.533 275.903 187.063 275.943 184.6 276.12C179.27 262.638 172.455 249.792 164.28 237.82C159.448 230.723 154.1 223.992 148.28 217.68C150.6 213.32 153.22 208.14 157.66 198.2C159.289 197.405 160.692 196.213 161.74 194.735C162.788 193.258 163.448 191.54 163.66 189.74C166.06 190.66 167.66 187.22 168.16 184.46C171.24 185.66 176.8 187.78 179.94 188.78C180.452 188.967 180.982 189.1 181.52 189.18C183.66 189.18 191.52 177.68 192.92 175.18C193.328 174.517 193.588 173.773 193.68 173C193.658 172.74 193.577 172.49 193.44 172.268C193.305 172.047 193.12 171.858 192.9 171.72C189.82 169.36 176.22 166.24 171.04 165.46C166.56 164.8 166.7 164.96 163.96 168.44C162.92 169.76 161.78 171.32 160.8 172.68C158.984 172.743 157.18 173.005 155.42 173.46C149.3 175.06 147.42 177.26 146.38 181C145.515 183.918 145.116 186.957 145.2 190C140.24 194.9 136.56 198.78 132.62 203.04C122.344 194.468 111.085 187.152 99.0804 181.24L100.28 173.24C107.16 173.24 116.66 171.24 119.1 164.78C120.233 161.593 121.09 158.314 121.66 154.98C122.44 150.6 122.76 146.78 122.86 145.46L126.74 143.64C126.908 143.561 127.043 143.426 127.12 143.257C127.196 143.089 127.211 142.898 127.16 142.72C127.16 142.72 122.34 124.72 122.04 123.48C124.54 122.92 126.4 122.4 126.4 122.4C126.4 90.4 96.4004 83.7 96.4004 83.7C96.4004 83.7 105.88 71.7 107 63.94C108.12 56.18 98.6004 53.58 86.1004 56.92C73.6004 60.26 81.7604 82.3 81.7604 82.3C76.0604 81.04 65.3004 87.48 65.3004 87.48C57.3004 45.78 35.4002 63.28 33.3002 75.62C31.2002 87.96 59.0004 90.78 59.0004 90.78C40.3804 98.58 33.8402 161.5 33.8402 161.5C38.1203 164.8 46.6404 166.82 55.8404 168.04C38.4836 180.278 25.1812 197.427 17.6402 217.28C14.3348 225.842 12.0848 234.773 10.9402 243.88C8.81428 262.097 10.1717 280.55 14.9402 298.26C17.9664 310.037 21.9805 321.538 26.9402 332.64C26.9747 332.72 27.0394 332.782 27.12 332.813C27.1598 332.83 27.2025 332.838 27.2455 332.837C27.2884 332.837 27.3307 332.827 27.3702 332.81C27.4095 332.793 27.4452 332.768 27.475 332.737C27.5049 332.707 27.5284 332.67 27.5442 332.63C27.56 332.59 27.5677 332.548 27.567 332.505C27.5664 332.462 27.5572 332.42 27.5402 332.38C22.7574 321.255 18.8975 309.757 16.0002 298C11.4418 280.382 10.2342 262.063 12.4402 244C13.6139 235.023 15.8634 226.22 19.1402 217.78C26.6807 198.048 40.0193 181.063 57.4004 169.06C89.8604 173.62 134.14 197.06 163.26 238.52C171.519 250.385 178.435 263.128 183.88 276.52C176.572 283.253 168.52 289.13 159.88 294.04C155.547 296.517 151.058 298.707 146.44 300.6C141.843 302.503 137.092 304.015 132.24 305.12C128.64 300 111.26 270 111.12 269.84C111.101 269.802 111.075 269.767 111.042 269.738C111.009 269.71 110.971 269.69 110.93 269.677C110.889 269.663 110.845 269.658 110.803 269.663C110.76 269.667 110.718 269.68 110.68 269.7C110.639 269.718 110.602 269.747 110.572 269.78C110.542 269.815 110.519 269.855 110.506 269.898C110.493 269.942 110.489 269.988 110.495 270.033C110.501 270.078 110.516 270.122 110.54 270.16C110.54 270.16 111.34 271.92 112.7 274.7C117.3 284.08 124.86 297.56 131.64 305.52C129.64 308.74 126.16 315.92 129.96 315.62C132.34 315.44 135.32 312.4 135.96 312.02C145.043 321.668 155.454 329.972 166.88 336.68C175 341.2 183.9 344.5 192.6 344.68H192.72C204.38 342.68 216.72 336.12 228.16 327.98C247.58 314.16 264.54 295.98 271.86 288.6C273.07 287.388 274.36 286.258 275.72 285.22C277.907 285.603 280.12 285.81 282.34 285.84C284.007 285.868 285.672 285.762 287.32 285.52C290.158 285.19 292.89 284.242 295.32 282.74C296.62 281.945 297.765 280.922 298.7 279.72C299.413 278.83 299.795 277.72 299.78 276.58C299.75 275.873 299.543 275.187 299.18 274.58C298.682 273.75 298.015 273.033 297.22 272.48ZM66.0004 169.08C80.3204 170.18 93.5804 169.86 93.5804 169.86C92.8604 165.1 86.4204 142.34 86.4204 142.34C81.4004 142.74 77.0004 139.14 80.1004 132.16C83.2004 125.18 90.4404 130.16 90.4404 130.16C96.4582 128.116 101.883 124.627 106.24 120C106.841 121.677 107.796 123.205 109.04 124.48C110.32 125.78 116.64 124.66 121.28 123.64C121.6 125.4 122.14 128.02 122.74 130.74C123.18 132.84 125.2 141.46 125.44 142.46L121.68 144C120.76 144.42 121.68 145.12 119.96 154.5C119.416 157.736 118.6 160.921 117.52 164.02C117 165.234 116.244 166.332 115.296 167.252C114.349 168.172 113.228 168.895 112 169.38C108.1 170.97 103.949 171.857 99.7404 172C99.6004 171.995 99.4636 172.043 99.3589 172.137C99.2545 172.23 99.1902 172.36 99.1804 172.5L97.0804 180.28C87.1847 175.365 76.756 171.607 66.0004 169.08ZM164 188.4C163 188.4 164.46 183.56 164.52 183.26L167.1 184.26C166.72 185.64 165.56 188.38 164 188.4ZM167.06 166.52C171.92 166.74 189.46 171.14 191.64 173.2C191.22 175.3 184.78 183.78 182.32 186.44C180.72 188.14 184.32 189.02 159.98 180.72C161.22 178.84 163.12 175.48 161 174.72C160.699 174.637 160.381 174.637 160.08 174.72C162.216 171.807 164.577 169.065 167.14 166.52H167.06ZM162.92 182.52C162.58 183.66 162.06 187.02 161.04 186.52C160.02 186.02 160.44 183.08 160.9 181.74L162.92 182.52ZM135.18 205.26L133.18 203.56C134.34 202.52 141.18 196.26 141.8 195.56C144.44 193.02 146.62 190.88 146.62 190.88C146.707 190.795 146.773 190.692 146.814 190.577C146.856 190.463 146.872 190.342 146.86 190.22C146.678 187.277 146.948 184.322 147.66 181.46C148.039 179.637 149.07 178.017 150.56 176.9C153.439 175.128 156.653 173.972 160 173.5L158.9 175.06C154.9 177.22 149.94 184.36 149.78 184.56C149.752 184.593 149.732 184.63 149.719 184.672C149.706 184.713 149.701 184.755 149.705 184.798C149.708 184.842 149.721 184.883 149.74 184.92C149.76 184.958 149.787 184.992 149.82 185.02C149.853 185.048 149.891 185.068 149.932 185.082C149.973 185.095 150.016 185.098 150.059 185.095C150.101 185.092 150.143 185.08 150.181 185.06C150.219 185.04 150.252 185.013 150.28 184.98C151.04 184.26 159.36 175.76 160.46 176.2C161.56 176.64 154.46 185.84 155.12 186.38C155.78 186.92 159.3 181.88 159.68 181.3L160.34 181.56C159.22 183.74 158.34 186.72 160.5 187.94C160.764 188.085 161.059 188.162 161.36 188.162C161.661 188.162 161.957 188.085 162.22 187.94C162.28 188.377 162.437 188.793 162.68 189.16C162.287 191.47 161.081 193.562 159.28 195.06C155.28 198.6 157.76 192.74 150.6 209.54C149.96 211.02 149.38 212.46 148.88 213.7C148.38 214.94 147.84 216.32 147.56 217.06C143.633 212.922 139.501 208.983 135.18 205.26ZM130.6 313.76C130.36 313.873 130.103 313.947 129.84 313.98C130.459 311.363 131.485 308.858 132.88 306.56C137.703 305.427 142.425 303.902 147 302C151.657 300.032 156.175 297.745 160.52 295.16C169.179 290.037 177.202 283.907 184.42 276.9C186.872 276.752 189.328 276.752 191.78 276.9C191.215 277.377 190.605 277.798 189.96 278.16C188.745 278.872 187.467 279.467 186.14 279.94C185.767 280.02 185.415 280.183 185.113 280.42C184.812 280.655 184.568 280.957 184.4 281.3C183.94 282.48 184.88 283.52 183.7 285.3C182.1 287.64 179.88 286.36 177.08 287.02C173.74 287.8 175.08 293.02 173.08 294.74C171.08 296.46 166.96 293.42 165.08 296.22C164.04 297.8 164.56 300.38 163.64 301.82C162.72 303.26 157.94 299.26 155.12 302.14C154.192 303.55 153.357 305.02 152.62 306.54C151.24 308.66 149.22 306.06 146.62 305.92C141.82 305.68 145.64 317.04 139.2 311.92C138.584 311.397 137.913 310.942 137.2 310.56C134.88 309.26 134.18 312.26 130.6 313.76ZM270.6 287.34C263.32 294.62 246.44 312.8 227.16 326.64C215.94 334.64 203.9 341.26 192.44 343.28C183.96 343.28 175.26 340.04 167.32 335.72C156.177 329.308 145.973 321.387 137 312.18C137.509 312.502 137.997 312.855 138.46 313.24C146.12 319.24 145.22 307.46 146.82 307.54C149.74 307.68 152.16 312.24 155.68 304.68C155.887 304.157 156.177 303.67 156.54 303.24C158.68 301.04 163.22 305.84 165.24 302.64C166.6 300.46 165.66 296.88 167.24 296.64C168.82 296.4 170.26 297.2 171.94 296.94C177.26 296.16 174.8 288.94 177.44 288.32C178.433 288.112 179.447 288.023 180.46 288.06C181.243 288.08 182.025 287.952 182.76 287.68C183.585 287.332 184.283 286.738 184.76 285.98C186.1 283.98 185.24 282.5 185.5 281.76C185.54 281.66 185.61 281.577 185.7 281.52L192.24 291.42C192.267 291.463 192.302 291.498 192.342 291.527C192.383 291.555 192.432 291.573 192.48 291.58C192.577 291.618 192.683 291.618 192.78 291.58C195.56 289.7 204.54 286.8 214.6 284.92C222.072 283.338 229.683 282.507 237.32 282.44C243.138 282.403 248.902 281.325 254.34 279.26C264.66 275.64 273.94 270.04 277.72 268.5C279.823 267.677 282.1 267.395 284.34 267.68C285.9 267.858 287.42 268.29 288.84 268.96C289.365 269.182 289.832 269.525 290.2 269.96C290.272 270.072 290.325 270.193 290.36 270.32H289.96C289.323 270.023 288.652 269.808 287.96 269.68C285.237 269.178 282.443 269.178 279.72 269.68C279.615 269.695 279.513 269.732 279.423 269.787C279.332 269.842 279.253 269.913 279.19 269.998C279.127 270.085 279.08 270.182 279.055 270.285C279.03 270.388 279.025 270.495 279.04 270.6C279.057 270.705 279.092 270.807 279.147 270.897C279.202 270.988 279.273 271.067 279.36 271.13C279.445 271.193 279.542 271.24 279.645 271.265C279.748 271.29 279.855 271.295 279.96 271.28C281.888 271.01 283.837 270.923 285.78 271.02H286.82C287.227 271.085 287.627 271.178 288.02 271.3C289.06 271.53 289.983 272.127 290.62 272.98C287.378 272.48 284.067 272.663 280.9 273.52H280.66C280.472 273.593 280.315 273.732 280.22 273.912C280.125 274.09 280.098 274.298 280.145 274.495C280.192 274.693 280.307 274.867 280.472 274.985C280.637 275.103 280.838 275.158 281.04 275.14H281.32C283.365 274.695 285.448 274.442 287.54 274.38H289C289.625 274.435 290.242 274.555 290.84 274.74C291.052 274.815 291.253 274.917 291.44 275.04C291.538 275.1 291.647 275.142 291.76 275.16C291.965 275.268 292.143 275.418 292.285 275.602C292.427 275.783 292.527 275.995 292.58 276.22L292.32 276.34C291.963 276.477 291.595 276.585 291.22 276.66C287.782 277.272 284.427 278.278 281.22 279.66C277.262 281.555 273.683 284.158 270.66 287.34H270.6ZM297.36 278.54C296.515 279.64 295.47 280.568 294.28 281.28C292.053 282.643 289.567 283.528 286.98 283.88C285.4 284.155 283.803 284.328 282.2 284.4C280.328 284.5 278.452 284.5 276.58 284.4C277.66 283.64 278.7 283 279.72 282.4C283.82 280.355 288.19 278.908 292.7 278.1C293.92 277.7 294.36 277.04 294.28 276.26C294.215 275.767 294.037 275.295 293.76 274.882C293.482 274.468 293.113 274.127 292.68 273.88C292.52 272.92 292.058 272.038 291.36 271.36L291.6 271.12C291.71 270.973 291.798 270.812 291.86 270.64C292.9 271.112 293.903 271.658 294.86 272.28C296.032 272.993 297.019 273.973 297.74 275.14C298.039 275.672 298.168 276.282 298.112 276.89C298.053 277.497 297.813 278.073 297.42 278.54H297.36Z" fill="black"/>
<path fill-rule="evenodd" clip-rule="evenodd" d="M162.981 177.48C168.795 179.997 174.818 182.003 180.98 183.48C186.66 184.82 182.56 182.4 170.98 178.78C166.8 177.48 163.641 176.78 163.341 176.78C163.296 176.758 163.248 176.745 163.199 176.743C163.149 176.741 163.1 176.75 163.055 176.77C163.009 176.788 162.968 176.818 162.935 176.855C162.902 176.892 162.877 176.935 162.862 176.981C162.847 177.028 162.843 177.078 162.849 177.128C162.856 177.177 162.873 177.223 162.9 177.265C162.926 177.307 162.961 177.343 163.003 177.37C163.045 177.397 163.092 177.413 163.141 177.42L162.981 177.48ZM171.82 169.66L167.64 168.66L165.861 170.56L170.48 171.78L171.82 169.66ZM294 170C292.96 170 292.12 171.16 292.12 172.6C292.12 174.04 292.96 175.18 294 175.18C295.04 175.18 295.86 174.02 295.86 172.6C295.86 171.18 295.1 170 294 170ZM312.16 170C311.12 170 310.28 171.16 310.28 172.6C310.28 174.04 311.12 175.18 312.16 175.18C313.2 175.18 314.02 174.02 314.02 172.6C314.02 171.18 313.18 170 312.16 170ZM114.761 137.58C114.938 137.583 115.115 137.549 115.279 137.481C115.443 137.413 115.591 137.313 115.715 137.185C115.839 137.058 115.935 136.907 115.998 136.741C116.061 136.575 116.089 136.397 116.081 136.22C116.081 135.3 116.081 134.4 116.181 133.48C116.216 133.114 116.113 132.748 115.89 132.455C115.668 132.162 115.343 131.964 114.981 131.9C113.221 131.66 113.441 134.12 113.441 136.1C113.434 136.467 113.566 136.824 113.811 137.099C114.056 137.373 114.395 137.545 114.761 137.58Z" fill="black"/>
</svg>
