<svg width="400" height="400" viewBox="0 0 400 400" fill="none" xmlns="http://www.w3.org/2000/svg">
<path d="M264 223.66H263.88H264ZM97.0007 282C97.7607 282.12 101.921 282.32 101.921 281.6C101.921 281.18 101.161 281.2 101.161 281.2C101.261 278 105.321 277.2 108.221 278.88C109.02 279.34 109.759 279.897 110.421 280.54C106.321 280.76 100.881 283.56 101.241 287.62C101.447 288.678 101.891 289.677 102.539 290.54C103.187 291.401 104.021 292.107 104.981 292.6C106.18 293.497 107.545 294.147 108.997 294.51C110.45 294.875 111.96 294.945 113.441 294.72C116.077 294.048 118.397 292.478 120.001 290.28C123.626 290.395 127.172 289.21 130.001 286.94C130.12 286.845 130.219 286.727 130.291 286.593C130.363 286.458 130.407 286.312 130.421 286.16C130.421 285.46 130.421 285.5 126.421 281.06C126.307 280.933 126.165 280.837 126.007 280.777C125.848 280.717 125.677 280.695 125.509 280.715C125.34 280.733 125.179 280.793 125.038 280.888C124.898 280.983 124.782 281.112 124.701 281.26C124.632 281.347 124.571 281.441 124.521 281.54C124.203 282.137 123.689 282.605 123.067 282.868C122.444 283.13 121.749 283.17 121.101 282.98C119.101 282.4 116.521 277.1 111.821 273.94C107.721 271.18 102.221 270.36 98.3407 273.64C96.6705 275.073 95.4833 276.987 94.9407 279.12C94.7247 279.778 94.7676 280.493 95.0607 281.12C95.5862 281.628 96.2716 281.94 97.0007 282ZM104.521 289.42C103.972 289.028 103.592 288.445 103.455 287.785C103.317 287.125 103.434 286.438 103.781 285.86C104.668 284.633 105.9 283.701 107.321 283.18C106.175 285.123 105.236 287.18 104.521 289.32V289.42ZM123.361 286.26C123.841 284.82 123.361 285.32 124.161 284.96C124.767 284.658 125.315 284.252 125.781 283.76L127.601 285.92C126.093 286.875 124.427 287.553 122.681 287.92C122.881 287.4 123.201 286.6 123.361 286.16V286.26ZM116.121 281.16C118.021 283.54 119.601 285.66 122.501 285.42C122.087 286.281 121.752 287.178 121.501 288.1C120.041 288.2 119.841 287.86 119.261 288.1C118.121 288.54 116.241 292.64 111.681 292.62C111.964 291.985 112.147 291.31 112.221 290.62C113.511 290.36 114.719 289.79 115.741 288.96C116.179 288.58 116.463 288.055 116.541 287.48C116.541 286.78 116.301 285.88 114.821 284.7C115.372 283.532 115.807 282.313 116.121 281.06V281.16ZM109.401 288.72C107.641 287.78 110.641 286.12 112.581 286.18C113.026 286.183 113.462 286.313 113.837 286.553C114.212 286.793 114.512 287.137 114.701 287.54C114.433 287.97 114.081 288.341 113.665 288.63C113.25 288.92 112.78 289.121 112.283 289.221C111.787 289.323 111.276 289.321 110.78 289.218C110.284 289.115 109.815 288.912 109.401 288.62V288.72ZM111.761 276.48C113.119 277.635 114.352 278.928 115.441 280.34C114.808 281.493 114.324 282.723 114.001 284C113.16 283.758 112.279 283.693 111.412 283.807C110.545 283.92 109.711 284.21 108.961 284.66C105.301 286.66 106.161 291.04 111.241 290.54C110.942 291.115 110.72 291.727 110.581 292.36C108.552 291.955 106.656 291.055 105.061 289.74C106.478 287.537 107.582 285.147 108.341 282.64C109.118 282.283 109.959 282.085 110.815 282.057C111.67 282.03 112.522 282.173 113.321 282.48L113.741 280.9L113.301 280.7C112.361 280.06 111.941 279.56 110.861 278.7C111.261 277.97 111.564 277.19 111.761 276.38V276.48ZM104.001 273.28C106.504 273.325 108.927 274.167 110.921 275.68C110.563 276.495 110.294 277.347 110.121 278.22C109.162 277.468 108.031 276.965 106.83 276.76C105.629 276.553 104.395 276.65 103.241 277.04C103.663 275.827 103.918 274.561 104.001 273.28ZM99.4207 274.84C100.529 273.977 101.862 273.45 103.261 273.32C102.64 274.665 102.255 276.105 102.121 277.58C101.525 277.937 101.037 278.45 100.709 279.063C100.382 279.675 100.227 280.365 100.261 281.06C98.8593 281.137 97.4571 280.927 96.1407 280.44C96.4382 278.218 97.6029 276.205 99.3807 274.84H99.4207ZM69.5407 271.5C65.9407 269.94 57.9407 274.56 56.4807 277.04C56.2694 277.587 56.2694 278.193 56.4807 278.74C57.7407 283.52 69.5007 300.4 71.6807 303.02C72.0607 303.5 72.5807 302.84 72.2407 302.28C71.2007 300.56 71.3207 304.02 76.6407 286.8C77.1334 286.607 77.5924 286.337 78.0007 286C78.1862 285.793 78.2887 285.527 78.2887 285.25C78.2887 284.973 78.1862 284.705 78.0007 284.5C77.8189 284.275 77.6109 284.073 77.3807 283.9L78.6407 279.24L83.6407 282C82.6294 284.527 81.892 287.155 81.4407 289.84C79.424 290.567 77.5342 291.607 75.8407 292.92C74.6607 294.22 76.5207 296.62 77.6807 298.06C78.8407 299.5 79.8207 300.48 80.0407 300.7C80.2607 300.92 80.9607 300.7 80.9007 300.34C80.7738 300.05 80.6051 299.781 80.4007 299.54C79.3167 297.853 78.3865 296.073 77.6207 294.22C79.1749 293.29 80.816 292.513 82.5207 291.9C83.1407 291.68 85.0607 291.08 85.5807 291.4C88.1465 292.752 90.8229 293.881 93.5807 294.78C93.692 294.833 93.82 294.84 93.936 294.798C94.0524 294.757 94.1476 294.672 94.2007 294.56C94.2538 294.448 94.2604 294.32 94.2189 294.205C94.1778 294.088 94.092 293.993 93.9807 293.94L90.5207 291.84C91.2571 290.17 91.7294 288.395 91.9207 286.58L100.461 291.2C100.981 291.5 101.381 290.68 101.001 290.46C100.621 290.24 74.7007 273.76 69.5407 271.5ZM66.5007 273.62C67.1985 273.41 67.9425 273.41 68.6407 273.62C69.1007 273.82 70.2207 274.42 71.7407 275.26C71.228 276.675 70.8789 278.145 70.7007 279.64C69.3607 278.88 68.5607 278.3 67.5007 278.48C66.9229 278.61 66.3822 278.87 65.9207 279.24C66.1207 277.68 66.3007 276.48 66.5007 273.62ZM58.5007 278.02C60.5749 276.041 63.0913 274.588 65.8407 273.78C64.7731 278.498 64.0247 283.281 63.6007 288.1C61.584 284.907 59.8825 281.523 58.5207 278L58.5007 278.02ZM67.5807 294.84C66.4807 293.02 65.2807 291 64.1407 289.02C64.8207 286.16 65.0407 284.84 65.4607 282.14C66.5549 284.038 67.82 285.832 69.2407 287.5C68.4342 289.881 67.8844 292.341 67.6007 294.84H67.5807ZM71.0807 300.6C70.3607 299.46 69.4407 297.92 68.2407 295.94C69 293.43 69.5025 290.85 69.7407 288.24C70.1807 289.3 74.1007 287.78 75.1607 287.38C74.3807 289.84 71.6607 298.4 71.1007 300.6H71.0807ZM70.4807 287.62C69.2411 285.475 68.1454 283.25 67.2007 280.96L67.8207 280.62C68.1007 280.78 74.9407 284.82 75.4407 285.14C73.8818 286.132 72.2269 286.961 70.5007 287.62H70.4807ZM76.4807 283.22C74.9807 282.22 72.9407 281 71.3807 280.1C71.9142 278.683 72.264 277.205 72.4207 275.7L78.1007 278.9C78.0007 279.66 77.3207 281.22 76.6007 283.22H76.4807ZM89.7207 291.22L86.6407 289.36C85.272 288.82 83.7491 288.82 82.3807 289.36C83.156 287.021 83.7182 284.618 84.0607 282.18L91.3007 286.18C90.5611 287.812 90.0687 289.543 89.8407 291.32L89.7207 291.22Z" fill="black"/>
<path d="M388.702 298.34C385.462 268.18 357.54 221.8 340.86 196.46C350.173 197.205 359.522 197.439 368.858 197.16C371.52 197.16 378.48 196.68 379.822 196.42C380.6 196.26 380.72 195.52 379.542 195.48C378.36 195.44 369.96 195.04 368.822 195.02H348.48C345.36 195.14 340.48 195.42 340.2 195.42C334.2 186.28 330.02 180.56 329.98 180.54C329.935 180.493 329.878 180.457 329.818 180.433C329.757 180.41 329.692 180.4 329.625 180.403C329.56 180.408 329.497 180.425 329.438 180.457C329.38 180.487 329.33 180.528 329.29 180.58C329.25 180.632 329.222 180.692 329.205 180.755C329.19 180.82 329.188 180.885 329.202 180.95C329.213 181.013 329.24 181.075 329.277 181.128C329.315 181.182 329.363 181.227 329.42 181.26C330.34 182 370.76 241.06 383.12 281.74C388.022 297.88 390.92 318.14 375.12 323.74C337.6 337.14 43.74 341.5 15.9602 325.74C12.1002 323.56 11.2002 319.02 11.9602 312.9C13.1402 304.4 17.7201 292.9 23.2402 280.02C29.4601 286.02 81.06 333.4 89.42 331.62C97.78 329.84 144.8 308 146.74 303.82C147.867 300.917 148.463 297.833 148.5 294.72C148.737 294.393 148.847 293.993 148.811 293.592C148.774 293.192 148.592 292.817 148.3 292.54C145.2 289.46 83.7 240.7 79.74 240.84C76.98 240.96 71.98 243.8 69.6 245.2C68.8283 243.937 67.6796 242.95 66.316 242.375C64.952 241.8 63.4425 241.67 62 242C60.6403 242.548 59.4225 243.4 58.4389 244.487C57.4549 245.575 56.7305 246.872 56.32 248.28C56.3425 248.388 56.4018 248.485 56.4872 248.555C56.5727 248.625 56.68 248.662 56.7901 248.662C56.9007 248.662 57.0076 248.625 57.0931 248.555C57.1789 248.485 57.2378 248.388 57.26 248.28C58.4632 246.245 60.3702 244.723 62.62 244C63.556 243.857 64.5127 243.982 65.3803 244.36C66.2476 244.738 66.9898 245.357 67.52 246.14L45.28 255.64C44.0992 254.427 42.6251 253.537 41 253.06C37.2 252.06 34.6401 254.56 33.1201 258.22C33.0868 258.325 33.0906 258.438 33.1311 258.542C33.1716 258.645 33.2465 258.73 33.3428 258.783C33.4391 258.839 33.5511 258.857 33.66 258.839C33.7688 258.82 33.8678 258.763 33.9402 258.68C36.5 254.98 39.46 253.72 43 256.68C38.72 258.58 32.7401 261.28 28.5401 263.36C28.8401 262.88 72 184.72 72 184.52C73.9 181 77.72 174.7 81.66 173.88C83.4411 173.492 85.2578 173.29 87.08 173.28C84.3 177.88 61.74 215.28 61.7 220.56C61.7 226.56 62.74 225.62 65.94 226.56C69.14 227.5 248.2 226.4 248.52 226.4C251.62 226.4 263.74 226 264.86 225.18C268.34 222.62 267.56 218.8 266.04 214.78C265.68 213.82 263.86 209.84 261.42 204.52C271.92 201.36 279.82 205.38 280.54 222.52C281.26 237.34 275.42 241.86 264.24 241.22C255.26 240.7 249.06 238.06 247.1 241.56C244.9 245.46 250.98 254.22 253.62 257.86C253.24 257.86 236.5 257.52 232.28 257.34C226.333 257.11 220.38 257.183 214.44 257.56C210.35 257.65 206.283 258.207 202.32 259.22C200.82 259.96 198.88 263.82 198.06 265.44C196.44 268.62 189.06 288.58 187.02 294.34C185.82 297.66 181.76 308.66 184.48 310.6C184.38 312.74 184.72 315.6 186.6 316.6C188.48 317.6 214.32 318.32 216.3 318.36C219.8 318.46 255.18 318.92 277.76 317.92C300.34 316.92 310.2 314.76 309.62 314.82C310.193 314.652 310.708 314.327 311.108 313.88C311.507 313.435 311.775 312.888 311.88 312.3C312.188 310.822 312.092 309.288 311.6 307.86C314.12 302.96 295.06 262.28 289.78 259.42C289.468 259.245 289.118 259.148 288.76 259.14C287.7 259.14 263.98 258.14 254.76 257.84C252.76 255.02 246.26 244.4 248.76 242.14C252.56 238.82 284.3 255.46 282.6 222.34C281.72 207.36 274.82 198.58 260.82 203.66C259.6 201.02 249.36 179.14 246.62 173.32C257.235 173.955 267.883 173.722 278.46 172.62C278.612 174.487 279.148 176.302 280.037 177.95C280.925 179.598 282.145 181.047 283.62 182.2C291.62 188.2 323.46 187.3 329.24 179.96C330.86 177.745 331.98 175.205 332.522 172.515C333.063 169.825 333.015 167.05 332.38 164.38C332.912 164.041 333.325 163.545 333.56 162.96C333.88 162.34 333.56 161.56 332.18 161.28C330.4 161.013 328.6 160.906 326.8 160.96C326.8 159.32 326.9 156.26 326.8 152.78C326.98 152.66 328.28 151.1 328.42 150.92C330.013 149.057 331.273 146.933 332.14 144.64C332.8 142.78 333.06 140.64 331.32 139.6C328.64 138.14 326.76 140.82 325.86 143.82C325.02 139.2 323.08 132.42 318.44 133.1C310.56 134.3 316 153.4 318.56 160.96C316.312 160.643 314.028 160.643 311.78 160.96C314.28 154.68 315.56 146.56 309.14 145.34C308.167 145.125 307.152 145.2 306.22 145.555C305.29 145.91 304.483 146.531 303.9 147.34C303.772 146.887 303.53 146.475 303.198 146.141C302.868 145.807 302.457 145.562 302.005 145.431C301.553 145.299 301.075 145.283 300.617 145.386C300.158 145.489 299.732 145.708 299.38 146.02C296.44 148.14 298.12 153 301.54 154.6C301.36 156.656 301.36 158.724 301.54 160.78C299.412 160.523 297.257 160.57 295.14 160.92C295.022 156.037 294.487 151.172 293.54 146.38C294.755 145.515 295.778 144.407 296.542 143.126C297.307 141.846 297.797 140.42 297.98 138.94C298.26 136.28 297.32 134.06 295.1 133.48C292.32 132.76 290.68 134.7 290.2 137.48C287.74 134.08 282.92 132.86 280.58 136.76C273.08 128.96 269.46 133.32 271.36 136.76C272.78 139.4 276.48 140.88 279.36 141.7C279.36 146.18 281.36 149.96 283.84 153.82C285.5 156.42 287.36 158.92 288.8 160.76C285.688 160.66 282.573 160.861 279.5 161.36C277.62 161.86 277.32 163.22 279.06 164.2C278.51 166.544 278.308 168.957 278.46 171.36C267.717 170.788 256.945 171.042 246.24 172.12C245.56 170.66 243.54 166.4 243.3 165.9C243.06 165.4 244.98 159.6 247.68 105.68C260.08 104.64 315.84 105.88 320.96 103.9C321.253 103.794 321.513 103.613 321.715 103.374C321.915 103.135 322.048 102.847 322.1 102.54C323.8 96.9599 324.96 48.9999 322.1 44.5399C321.4 43.4399 318.9 43.0999 317.52 42.8999C299.7 40.2999 225.34 41.4199 221.52 43.4399C217.7 45.4599 219.32 65.18 220.04 69.1C181.42 67.86 92.24 70.28 83.84 73.42C81.84 74.14 81.1 76.88 80.7 78.9399C77.38 96.08 86.7 151.24 89.82 168.28C89.62 168.28 89.82 168.28 87.38 172.08C85.3149 171.927 83.2385 172.035 81.2 172.4C76.64 173.1 72.44 179.4 70.12 183.32C70.02 183.52 64.12 193.32 63.24 194.92C58.22 194.14 34.8801 194.44 31.9201 194.6C28.9601 194.76 25.9202 194.98 23.2402 195.18C22.7602 195.18 22.7202 196.1 23.2402 196.12C28.8402 196.46 30.9001 196.58 35.2401 196.64C45.86 196.8 61.52 197.24 62.02 197.18C60.98 199 45.58 226.4 43.52 230.28C34.5602 247.08 27.5201 262.46 27.1001 263.76C24.7753 264.817 22.5916 266.162 20.6001 267.76C19.9578 269.522 19.5738 271.368 19.4602 273.24C19.3602 276.46 20.5201 277.24 22.3001 279.04C17.524 289.273 13.5974 299.883 10.5602 310.76C9.56866 315.16 9.52771 319.722 10.4402 324.14C11.2568 328.557 12.7832 332.812 14.9602 336.74C15.9381 337.733 17.2053 338.392 18.5801 338.62C23.8401 340.1 40.14 342 45.6 342.62C45.1887 345.063 45.0745 347.548 45.26 350.02C45.2658 352.567 45.636 355.099 46.36 357.54C46.3669 357.6 46.3851 357.659 46.4142 357.712C46.4436 357.765 46.4829 357.812 46.5302 357.85C46.5778 357.888 46.632 357.917 46.6902 357.933C46.7487 357.952 46.8098 357.957 46.8702 357.95C46.9305 357.943 46.9891 357.925 47.0425 357.895C47.096 357.867 47.1429 357.827 47.1807 357.78C47.2189 357.732 47.2472 357.678 47.2643 357.62C47.2814 357.562 47.2869 357.5 47.28 357.44C47.6 354.947 47.6872 352.43 47.54 349.92C47.5269 347.503 47.252 345.097 46.72 342.74C49.48 342.98 52.14 343.18 54.46 343.26C54.0912 345.593 53.9905 347.963 54.16 350.32C54.1669 352.867 54.5374 355.398 55.26 357.84C55.26 357.962 55.3087 358.078 55.3949 358.165C55.4811 358.252 55.5982 358.3 55.72 358.3C55.8422 358.3 55.9592 358.252 56.0454 358.165C56.132 358.078 56.18 357.962 56.18 357.84C56.5109 355.348 56.6047 352.83 56.46 350.32C56.4465 347.985 56.1782 345.657 55.66 343.38C60.12 343.48 125.76 349.38 239.12 347.14C269.5 346.54 306.02 345.14 336.1 341.84C335.703 344.252 335.588 346.702 335.76 349.14C335.77 351.68 336.147 354.207 336.88 356.64C336.867 356.707 336.867 356.777 336.883 356.843C336.898 356.91 336.93 356.972 336.973 357.025C337.017 357.078 337.07 357.122 337.132 357.15C337.193 357.18 337.262 357.195 337.33 357.195C337.398 357.195 337.466 357.18 337.528 357.15C337.59 357.122 337.645 357.078 337.688 357.025C337.73 356.972 337.762 356.91 337.777 356.843C337.793 356.777 337.795 356.707 337.78 356.64C338.13 354.15 338.223 351.63 338.06 349.12C338.038 346.65 337.75 344.188 337.2 341.78C339.42 341.54 344.56 340.9 345 340.84C344.607 343.239 344.498 345.675 344.68 348.1C344.682 350.647 345.052 353.18 345.78 355.62C345.793 355.742 345.855 355.853 345.95 355.93C346.047 356.007 346.168 356.043 346.29 356.03C346.412 356.017 346.523 355.955 346.6 355.86C346.678 355.763 346.713 355.642 346.7 355.52C347.03 353.033 347.117 350.522 346.96 348.02C346.947 345.555 346.658 343.1 346.1 340.7C355.12 339.48 382.698 335.76 386.458 328.06C390.898 319.28 390.542 307.86 388.702 298.34ZM206.7 266.14C206.92 265.6 213.62 264.14 220.94 266.14C221.007 266.125 221.077 266.127 221.143 266.143C221.21 266.159 221.272 266.19 221.325 266.232C221.378 266.275 221.422 266.33 221.45 266.392C221.48 266.453 221.495 266.522 221.495 266.59C221.495 266.659 221.48 266.727 221.45 266.788C221.422 266.85 221.378 266.905 221.325 266.947C221.272 266.99 221.21 267.022 221.143 267.037C221.077 267.053 221.007 267.053 220.94 267.04C217.295 267.687 213.573 267.782 209.9 267.32C208.18 267.04 206 267.02 206.64 266.14H206.7ZM309.52 313.7C291.02 317.22 188.82 316.42 187.28 315.7C185.74 314.98 185.6 312.66 185.56 311.14C196.64 314.74 304.9 311.96 310.92 308.78C311.24 310.54 311.32 313.36 309.46 313.7H309.52ZM270.7 266.36C270.7 265.68 275.1 265.3 275.3 265.28C277.917 265.079 280.543 265.079 283.16 265.28C284.62 265.44 286.64 265.64 286.48 266.26C286.32 266.88 283.3 267.14 282.78 267.22C280.825 267.4 278.863 267.48 276.9 267.46C275.58 267.42 270.56 267.18 270.64 266.36H270.7ZM296.4 273.02C301.403 282.553 305.605 292.488 308.96 302.72C309.387 304.012 309.623 305.36 309.66 306.72C300.64 309.52 196.68 312.4 186.16 309.38C185.66 309.24 185.52 309.38 185.4 308.54C184.64 303.1 193.54 281.48 195.6 276.44C233.44 275.18 296 273.24 296.34 273.02H296.4ZM279.56 140.8C277.373 139.599 275.388 138.06 273.68 136.24C272.9 135.06 273.08 134.24 275.38 135.36C276.82 136.02 278.84 137.2 280.2 138.02C279.85 138.91 279.635 139.847 279.56 140.8ZM327.56 144.38C329.16 141.5 330.74 140.68 330.58 142.38C329.72 145.422 328.498 148.35 326.94 151.1C326.82 149.1 326.68 147.76 326.52 146.44C326.6 146.16 327 145.32 327.5 144.38H327.56ZM319.06 161.78C319.46 162.92 319.72 163.6 319.74 163.64C319.762 163.697 319.795 163.748 319.838 163.792C319.88 163.836 319.93 163.871 319.987 163.895C320.042 163.919 320.102 163.932 320.163 163.933C320.223 163.934 320.283 163.922 320.34 163.9C321.22 163.56 319.92 162.74 317.84 150.68C317.22 147.08 315.38 135.98 319.02 135.46C321.98 135.02 323.58 142.36 324.14 145.26C325.178 150.85 325.846 156.502 326.14 162.18C326.138 162.291 326.177 162.398 326.248 162.483C326.32 162.567 326.42 162.623 326.53 162.64C326.638 162.657 326.752 162.635 326.845 162.576C326.938 162.517 327.008 162.426 327.04 162.32C327.047 162.207 327.047 162.093 327.04 161.98C328.848 162.033 330.645 162.281 332.4 162.72C332.177 162.981 331.897 163.186 331.58 163.32C327.38 165.48 314.68 165.06 310.3 164.98C310.9 163.78 311.32 162.86 311.78 161.76C314.17 162.153 316.608 162.16 319 161.78H319.06ZM303.46 157.4C303.92 153.4 304.94 147.02 308.98 147.78C313.02 148.54 312 154.4 311.12 158.32C310.578 160.569 309.91 162.785 309.12 164.96H303.12C303.072 162.437 303.165 159.913 303.4 157.4H303.46ZM300.92 148C301.013 147.911 301.123 147.843 301.245 147.8C301.365 147.757 301.495 147.739 301.622 147.748C301.75 147.758 301.875 147.794 301.988 147.854C302.102 147.915 302.202 147.999 302.28 148.1C302.598 148.419 302.887 148.767 303.14 149.14C302.572 150.415 302.175 151.76 301.96 153.14C300.92 151.7 299.58 149.08 300.92 148ZM294.62 135.84C297.22 136.66 295.18 143.5 293.44 145.58C292.96 143.427 292.242 141.335 291.3 139.34C291.88 137.58 292.86 135.28 294.62 135.82V135.84ZM289.7 162C290.68 163.24 291.32 164 291.32 164C291.4 164.078 291.505 164.125 291.617 164.132C291.728 164.138 291.838 164.104 291.925 164.036C292.013 163.967 292.073 163.869 292.095 163.759C292.117 163.65 292.097 163.536 292.04 163.44C292.04 163.44 288.5 158.4 285.58 153.18C283.38 149.18 281.28 145.18 281.86 140.76C282.32 137.28 284.16 135.8 287.26 137.82C291.74 140.7 293.78 158.46 294.42 163.82C294.427 163.96 294.477 164.095 294.562 164.206C294.648 164.317 294.767 164.399 294.9 164.44C295.44 164.44 295.36 163.86 295.34 163.58C295.32 163.3 295.34 161.9 295.34 161.76C297.465 162.029 299.615 162.029 301.74 161.76C301.86 163.22 302 164.36 302.1 164.96C295 164.96 286.42 165.44 280.54 163.14C283.562 162.542 286.623 162.161 289.7 162ZM280.12 164.94C283.045 166.074 286.128 166.748 289.26 166.94C292.8 167.26 316.9 167.3 319.64 167.16C323.772 167.092 327.863 166.328 331.74 164.9C332.112 167.355 331.972 169.862 331.328 172.262C330.685 174.66 329.552 176.9 328 178.84C323.14 184.54 292.4 185.84 285.02 180.64C280.16 177.3 279.28 170.62 280.12 164.92V164.94ZM264 223.66C264.42 225 73.72 225.06 73.52 225.04C65.52 225.04 67.52 225.04 64.84 224.38C64.12 224.22 63.98 224.22 63.84 223.52C63.6705 222.422 63.6236 221.308 63.7 220.2C63.7421 220.282 63.8098 220.348 63.8931 220.388C63.976 220.427 64.0698 220.439 64.16 220.42C64.16 220.42 263.94 217.7 265.24 217.66C265.78 220 265.86 222.18 264 223.66ZM320.26 102.28C320.26 102.28 320.38 102.08 320.42 102.14C320.46 102.2 320.26 102.26 320.16 102.28H320.26ZM220.8 51.8399C220.8 50.5399 221.32 45.6199 222.48 45.0199C225.12 43.6999 309.02 42.5799 320.48 46.1599C322.48 50.3599 321.84 97.54 320.16 102.28C310.32 103.82 260.8 103.7 247.92 105.02C248.7 89.28 249.04 76.0199 248.4 73.4399C248.277 73.1036 248.077 72.8003 247.817 72.5538C247.557 72.3072 247.243 72.1247 246.9 72.02C242.52 70.12 226.04 69.5799 221.24 69.4199C220.617 63.5814 220.47 57.7021 220.8 51.8399ZM82.5 102.2C82.2 98 80.72 76.7999 84.72 75.32C86.72 74.6199 93.76 73.92 103.98 73.32C123.56 72.1 154.42 71.12 182.5 70.92C188.74 70.92 241.46 70.46 246.62 74C248.14 80.92 243.28 157.8 242.2 165.22C194.94 166.76 138.94 169.08 91.28 167.92C90.48 163.34 84.36 128 82.5 102.2ZM90.66 169.26C90.664 169.213 90.664 169.167 90.66 169.12C124.36 170.16 229.82 166.7 242.66 166.62C244.08 169.92 264.02 214.16 264.86 216.62C264.64 216.62 64 219.34 63.74 219.54C66.26 211.1 87.1 175.42 90.66 169.26ZM145.64 303.26C144.16 306.14 99.32 326.18 90.1 328.96C90.2789 328.038 90.3462 327.099 90.3 326.16C103.92 321.44 133.48 308.98 146.74 300.16C146.488 301.237 146.118 302.283 145.64 303.28V303.26ZM147.02 298.84C143.02 301.2 139.2 302.84 90.28 325.08C90.2822 324.175 90.1611 323.273 89.92 322.4C96.32 319.4 139.72 302.58 147.46 295.88C147.36 296.74 147.22 297.78 147.02 298.86V298.84ZM44 257.8C44.9618 258.933 45.5571 260.332 45.7072 261.81C45.8571 263.288 45.5549 264.777 44.84 266.08C44.52 266.58 45.28 267.1 45.6 266.58C46.8076 265.263 47.5214 263.57 47.62 261.787C47.7182 260.003 47.1956 258.242 46.14 256.8C55.86 252.34 65.42 248.14 68.04 247C68.6956 248.332 69.0465 249.792 69.0672 251.277C69.088 252.76 68.7781 254.23 68.16 255.58C67.92 256.22 68.64 256.46 68.98 256.04C70.08 254.642 70.7647 252.963 70.956 251.195C71.1469 249.427 70.8363 247.64 70.06 246.04C72.22 244.82 77.26 242.04 79.72 242.04C82.8 242.04 145.3 292.88 146.46 294.04C141.24 299.42 92.78 318.6 88.7 320.56C80.1 318.56 27.6201 273.42 22.7001 268.78C25.7601 266.24 40.56 259.4 44 257.8ZM21.1801 269.7C27.4201 275.8 79.48 321.24 88.2 322.68C88.0254 323.433 87.9447 324.207 87.96 324.98C73.96 318.14 33.9601 283.5 20.7201 272.36C20.7801 272.36 21.0801 270.4 21.2401 269.7H21.1801ZM21.4802 276.56C20.916 275.702 20.6362 274.687 20.6802 273.66C33.7602 286.86 70.68 319.32 87.94 326.08C87.9047 327.15 88.0123 328.219 88.26 329.26C78 326.96 22.8402 278.2 21.5402 276.56H21.4802ZM385.48 327.4C372.56 353.04 21.9601 346.34 16.2802 336.34C13.8726 332.155 12.2461 327.567 11.4802 322.8C12.2517 324.49 13.5404 325.89 15.1602 326.8C44.6 343.94 337.5 339.46 375.738 325.72C383.84 322.8 387.92 316.5 388.84 307.72C389.382 314.462 388.215 321.232 385.44 327.4H385.48Z" fill="black"/>
<path d="M85.9996 191.38C227.42 193.38 240.92 192.16 244.88 191.54C245.82 191.4 246.42 191.08 246.38 189.98C246.38 187.08 239.58 173.78 237.78 172.86C236.98 172.44 93.7796 174.46 93.2796 174.62C93.1865 174.642 93.0992 174.685 93.0232 174.743C92.9476 174.802 92.8847 174.875 92.8396 174.96C91.4796 177.18 84.8396 188.14 85.1396 190.62C85.172 190.826 85.276 191.017 85.4327 191.155C85.5898 191.293 85.7902 191.373 85.9996 191.38ZM93.8596 176C95.2996 175.82 236.18 174.42 237.04 174.5C238.533 176.648 239.87 178.9 241.04 181.24C237.76 181.24 91.1596 182.02 90.3996 182.04C91.2796 180.28 92.4396 178.28 93.8596 176ZM89.8596 183C90.6396 183 238.98 182.24 241.52 182.18C242.837 184.63 243.877 187.22 244.62 189.9C237.5 191.04 172.62 190.48 86.7196 189.9C87.5222 187.477 88.5603 185.14 89.8196 182.92L89.8596 183ZM196.38 198.18C195.982 197.297 195.33 196.552 194.507 196.04C193.685 195.526 192.728 195.27 191.76 195.3C186.68 195.3 144.02 194.12 140.18 195.68C137.728 198.65 135.831 202.038 134.58 205.68C134.46 206.56 134.9 206.96 135.44 207.02C147.44 208.32 187.22 209.56 197.54 207.66C198.82 207.42 198.98 206.06 198.72 204.76C198.102 202.513 197.318 200.313 196.38 198.18ZM136 205.68C137.148 202.435 138.708 199.35 140.64 196.5C143.68 195.5 183.22 197.58 191.82 197.56C192.332 197.542 192.838 197.672 193.278 197.933C193.718 198.197 194.073 198.58 194.3 199.04C195.272 201.117 196.03 203.288 196.56 205.52C186.42 207.1 143.36 206.2 136 205.68ZM335.28 200.74C332.46 196.86 318.32 197.04 313.58 197.18C309.58 197.18 295.04 197.84 295.04 201.76C295.057 202.077 295.148 202.387 295.308 202.662C295.468 202.937 295.692 203.168 295.96 203.34C296.34 203.64 293.72 230 297.32 244.14C298.5 248.82 300.02 251.14 304.48 253.08C313.04 256.8 327.24 255.98 332.94 248.04C334.08 245.72 333.84 238.96 333.94 236.9C342.8 238.66 350.06 235.06 351.94 225.52C353.12 219.38 351.6 215.36 348.98 212.92C347.23 211.495 345.16 210.513 342.95 210.062C340.738 209.608 338.45 209.697 336.28 210.32C336.205 210.345 336.123 210.353 336.045 210.34C335.965 210.328 335.89 210.299 335.827 210.25C335.762 210.203 335.708 210.142 335.673 210.07C335.637 209.998 335.618 209.92 335.62 209.84C335.62 208.78 336 201.6 335.28 200.74ZM297.28 201.16C302.68 198 324.68 197.76 331.78 200.98C332.02 201.1 332.92 201.56 332.92 201.76C332.92 201.96 332 202.44 331.78 202.54C326.42 204.96 307.28 206.06 297.22 202.38C296.52 202 297.22 201.24 297.22 201.16H297.28ZM336.84 212.36C338.658 211.837 340.575 211.762 342.428 212.14C344.282 212.52 346.015 213.343 347.48 214.54C349.64 216.54 350.72 219.98 349.72 225.08C349.522 226.853 348.907 228.553 347.927 230.045C346.947 231.535 345.628 232.775 344.08 233.66C340.8 235.137 337.107 235.418 333.64 234.46C333.47 234.398 333.288 234.372 333.108 234.383C332.926 234.395 332.75 234.443 332.588 234.525C332.427 234.608 332.285 234.723 332.17 234.863C332.055 235.003 331.97 235.165 331.92 235.34C331.38 236.86 332.14 243 331.04 246.88C325.98 253.74 313.04 254.36 305.38 251.14C301.5 249.48 300.42 247.76 299.38 243.62C296.7 233.8 296.54 213.8 297.14 203.96C303.44 206.94 325.26 207.8 333.84 203.4C333.84 209.6 333.08 210.64 334.64 211.9C334.942 212.128 335.29 212.286 335.66 212.366C336.028 212.445 336.412 212.443 336.78 212.36H336.84ZM142.56 254.74C137.307 250.285 131.657 246.322 125.68 242.9C123.377 241.542 120.928 240.448 118.38 239.64C116.24 239.08 115.34 240.18 115.78 241.64C116.681 243.737 117.873 245.695 119.32 247.46C123.921 253.285 129.213 258.53 135.08 263.08C144 270.54 155.56 279.58 164 286C164.43 286.315 164.918 286.54 165.436 286.662C165.955 286.785 166.492 286.803 167.018 286.717C167.543 286.628 168.045 286.437 168.497 286.152C168.947 285.868 169.335 285.497 169.64 285.06C171.12 283.44 172.04 280.6 170.38 279.06C168.46 277.34 156.72 266.28 142.56 254.74ZM123.4 250.3L120.66 245.88C121.635 245.475 122.46 244.775 123.02 243.88L127.36 245.64C126.271 245.857 125.287 246.433 124.568 247.28C123.849 248.126 123.437 249.19 123.4 250.3ZM129.54 255.4C128.094 254.183 126.756 252.845 125.54 251.4C125.68 248.98 126.44 247.9 128.86 247.82C130.472 248.59 131.995 249.537 133.4 250.64C132.324 250.902 131.364 251.51 130.667 252.368C129.97 253.228 129.574 254.293 129.54 255.4ZM163.74 284.5C161.52 282.64 132 257.6 130.18 256C130.332 254.88 130.821 253.833 131.582 252.998C132.343 252.162 133.339 251.577 134.44 251.32C141.34 256.44 151.26 264.92 168.56 279.32C167.887 279.285 167.213 279.4 166.589 279.653C165.964 279.907 165.402 280.293 164.943 280.787C164.483 281.28 164.137 281.868 163.93 282.51C163.722 283.152 163.657 283.83 163.74 284.5ZM322.22 306.66C324.72 308.36 326.46 307.58 328.08 305.22C332.08 299.54 346.08 274.4 346.08 274.2C346.08 274 346.24 274.38 345.58 266.3C345.552 265.997 345.442 265.705 345.262 265.458C345.083 265.212 344.84 265.018 344.56 264.898C344.28 264.777 343.972 264.733 343.67 264.773C343.367 264.812 343.08 264.932 342.84 265.12L336 270.1C336 270.1 320.82 301.48 320.66 301.76C320.385 302.639 320.388 303.58 320.667 304.457C320.947 305.333 321.488 306.102 322.22 306.66ZM343.4 267.56C343.52 269.02 343.68 270.96 343.8 272.3C342.315 271.588 340.76 271.033 339.16 270.64L343.4 267.56ZM337.68 272C339.413 273.228 341.417 274.025 343.52 274.32C343.22 274.84 327.94 302.72 327.78 303C327.315 302.055 326.552 301.29 325.608 300.823C324.665 300.357 323.593 300.215 322.56 300.42C324.12 297.52 337.12 273 337.68 272Z" fill="black"/>
<path d="M328.48 232.34C328.265 232.037 327.992 231.78 327.675 231.585C327.358 231.39 327.006 231.258 326.64 231.2C325.457 230.883 324.255 230.643 323.04 230.48C323.72 235.24 324.12 240.48 324.1 240.94C324.07 241.245 323.92 241.525 323.685 241.72C323.448 241.913 323.145 242.008 322.84 241.98C322.535 241.945 322.253 241.792 322.06 241.552C321.865 241.313 321.772 241.007 321.8 240.7C321.8 240.36 321.68 238.98 321.58 230.28C317.58 229.78 298.32 228.28 299.08 232.12C299.08 232.32 297.5 242.12 303.62 246.82C309.74 251.52 321.98 250.6 326.26 245.82C327.475 244.365 328.277 242.61 328.58 240.74C329.053 237.957 329.018 235.112 328.48 232.34ZM333.28 214.24C333.28 215.14 332.08 222.02 331.28 231.26L332.24 231.46C335.76 232.207 339.425 231.807 342.7 230.32C343.843 229.685 344.788 228.75 345.433 227.613C346.08 226.477 346.4 225.187 346.36 223.88C346.497 222.257 346.213 220.625 345.54 219.142C344.866 217.658 343.825 216.372 342.513 215.407C341.202 214.44 339.665 213.825 338.048 213.62C336.432 213.417 334.792 213.63 333.28 214.24ZM334.18 214.92C335.457 214.718 336.762 214.792 338.006 215.137C339.253 215.482 340.41 216.09 341.4 216.92C342.352 217.792 343.088 218.872 343.553 220.077C344.018 221.28 344.198 222.575 344.08 223.86C343.9 229 338.62 229.98 333.56 229.46C333.8 225.82 334 221.64 334.18 214.92ZM140.6 196.5C140.6 196.5 140.62 196.52 140.6 196.5V196.5ZM312.76 97.5196C312.755 97.876 312.82 98.2298 312.952 98.5607C313.085 98.8916 313.28 99.1931 313.53 99.448C313.778 99.7025 314.077 99.9054 314.403 100.045C314.732 100.184 315.083 100.257 315.44 100.26C315.985 100.272 316.52 100.121 316.978 99.8276C317.437 99.5338 317.798 99.1102 318.013 98.6105C318.23 98.1113 318.293 97.5585 318.195 97.0233C318.097 96.4876 317.84 95.9938 317.458 95.6047C317.078 95.2156 316.59 94.9483 316.057 94.8378C315.525 94.7273 314.97 94.7778 314.466 94.9832C313.962 95.1887 313.53 95.5396 313.226 95.9916C312.923 96.4433 312.76 96.9756 312.76 97.5196ZM93.8603 163.5C94.3203 164.4 94.9203 164.5 95.3003 164.22C95.6803 163.94 222.34 162.84 231.76 162.34C233.786 162.371 235.806 162.115 237.76 161.58C242.26 157.58 244.02 82.7996 242.26 79.3396C237.76 70.3596 96.9203 76.14 88.2603 78.76C81.3603 80.84 90.6803 157.12 93.8603 163.5ZM87.8803 81.9996C87.8803 81.6396 88.3203 80.2396 88.6603 80.1396C98.2403 77.2596 237.34 72.52 241.12 80.04C241.443 81.5443 241.59 83.0814 241.56 84.62C241.9 93.34 241.56 112.02 240.66 128.76C240.48 131.96 239.06 158.18 236.98 160.56C228.68 162.32 100.78 162.72 95.1003 162.94C91.8603 155.42 84.8603 95.1996 87.8803 81.9996ZM315.7 53.4196C316.243 53.4316 316.778 53.2818 317.237 52.9887C317.695 52.696 318.055 52.2734 318.272 51.7753C318.49 51.2767 318.553 50.7254 318.457 50.1905C318.358 49.6556 318.105 49.1618 317.726 48.7716C317.346 48.3818 316.862 48.1134 316.33 48.0003C315.798 47.8876 315.245 47.9353 314.74 48.1378C314.235 48.34 313.803 48.688 313.497 49.1371C313.19 49.5862 313.025 50.1163 313.02 50.6596C313.012 51.0178 313.075 51.3738 313.206 51.7069C313.337 52.04 313.533 52.344 313.783 52.6007C314.032 52.8578 314.33 53.0622 314.66 53.2029C314.988 53.3436 315.342 53.4174 315.7 53.4196Z" fill="black"/>
<path d="M127.021 132.4H150.781C153.53 132.389 156.163 131.288 158.102 129.338C160.04 127.389 161.126 124.749 161.121 122V102.72C161.121 99.9643 160.036 97.3195 158.101 95.3581C156.165 93.397 153.536 92.2766 150.781 92.2395H127.021C125.643 92.2344 124.278 92.5017 123.004 93.0268C121.73 93.5515 120.572 94.3232 119.598 95.2973C118.624 96.2715 117.852 97.429 117.328 98.7028C116.803 99.977 116.535 101.342 116.541 102.72V122C116.546 123.371 116.821 124.727 117.351 125.992C117.88 127.257 118.653 128.405 119.627 129.37C120.6 130.336 121.754 131.101 123.022 131.62C124.291 132.14 125.65 132.405 127.021 132.4ZM118.241 102.72C118.277 100.408 119.216 98.2021 120.856 96.573C122.496 94.9435 124.709 94.0203 127.021 93.9995H150.781C151.948 93.9864 153.107 94.2046 154.19 94.6417C155.272 95.0788 156.258 95.7261 157.089 96.5461C157.92 97.3664 158.581 98.3428 159.032 99.4195C159.484 100.496 159.718 101.652 159.721 102.82V122C159.715 123.169 159.48 124.325 159.028 125.402C158.576 126.48 157.916 127.458 157.086 128.281C156.256 129.104 155.271 129.755 154.189 130.197C153.108 130.64 151.949 130.865 150.781 130.86H127.021C125.862 130.854 124.716 130.621 123.648 130.173C122.58 129.725 121.611 129.071 120.796 128.248C119.98 127.425 119.335 126.45 118.897 125.378C118.458 124.306 118.235 123.158 118.241 122V102.72ZM191.26 146.68C191.66 147.86 192.66 147.6 192.94 146.86C193.32 145.8 195.54 138.18 195.82 136.86C197.36 136.38 193.02 137.88 206.44 133C206.58 132.946 206.698 132.851 206.783 132.728C206.868 132.605 206.913 132.459 206.913 132.31C206.913 132.16 206.868 132.015 206.783 131.892C206.698 131.768 206.58 131.674 206.44 131.62L185.88 123.4C185.753 123.34 185.613 123.314 185.475 123.325C185.335 123.337 185.202 123.384 185.087 123.463C184.972 123.541 184.878 123.649 184.818 123.775C184.757 123.901 184.73 124.04 184.74 124.18C184.74 124.18 190.16 143.5 191.26 146.68ZM186.8 125.54L204.12 132.36C201.8 133.22 197.88 134.7 196 135.46C195.16 135.78 194.82 135.92 194.62 136.18C194.42 136.44 195.12 134.88 192.18 143.94L186.8 125.54ZM234 66.8995C234.023 67.0195 234.088 67.1275 234.183 67.2043C234.278 67.2813 234.398 67.3221 234.52 67.3195C234.94 67.3195 247.88 68.5595 250.52 67.8595C252.22 67.3995 252.52 64.3995 252.68 62.6395C252.88 59.9795 252.68 53.4595 251.56 51.2395C250.04 48.2395 238.82 49.2395 235.56 49.8195C234.695 49.9414 233.868 50.2559 233.14 50.7395C232.717 51.2315 232.47 51.8512 232.44 52.4995C232.42 57.3428 232.943 62.173 234 66.8995ZM234.58 52.2795C237.74 51.2995 246.74 50.9195 249.6 52.2795C250.58 54.8795 251.1 63.8195 249.92 65.8995C248.06 66.3795 236.7 66.3795 234.8 66.3995C234.74 64.8395 233.82 56.4195 234.58 52.2795ZM260.84 66.8195C260.867 66.9377 260.933 67.0435 261.027 67.1199C261.122 67.1959 261.238 67.2381 261.36 67.2395C261.78 67.2395 274.72 68.4795 277.36 67.7795C279.06 67.3195 279.36 64.3195 279.54 62.5595C279.72 59.8995 279.54 53.3795 278.4 51.1595C276.88 48.1395 265.66 49.1595 262.4 49.7395C261.537 49.8697 260.712 50.1835 259.98 50.6595C259.565 51.157 259.32 51.7733 259.28 52.4195C259.262 57.2628 259.785 62.093 260.84 66.8195ZM261.42 52.1995C264.58 51.1995 273.58 50.8395 276.44 52.1995C277.42 54.7995 277.94 63.7395 276.76 65.7995C274.9 66.2995 263.54 66.2995 261.64 66.3195C261.58 64.7595 260.66 56.3395 261.42 52.1995ZM288.92 67.6995C288.943 67.8195 289.008 67.9275 289.103 68.0043C289.198 68.0814 289.318 68.1221 289.44 68.1195C289.86 68.1195 302.8 69.3595 305.44 68.6595C307.14 68.1995 307.44 65.1995 307.6 63.4395C307.8 60.7795 307.6 54.2595 306.48 52.0395C304.96 49.0395 293.74 50.0395 290.48 50.6195C289.617 50.7464 288.79 51.0606 288.06 51.5395C287.637 52.0315 287.39 52.6512 287.36 53.2995C287.34 58.1428 287.863 62.973 288.92 67.6995ZM289.5 53.0795C292.66 52.0995 301.66 51.7195 304.52 53.0795C305.5 55.6795 306.02 64.6195 304.84 66.6995C302.98 67.1795 291.62 67.1795 289.72 67.1995C289.66 65.6395 288.74 57.2195 289.5 53.0795ZM261.02 97.5795C261.16 97.9795 261.48 98.0195 261.54 97.9995C261.98 97.9995 274.9 99.2395 277.54 98.5395C279.24 98.0795 279.54 95.0795 279.72 93.3195C279.9 90.6595 279.72 84.1395 278.6 81.9395C277.06 78.9195 265.84 79.9395 262.6 80.4995C261.728 80.6235 260.897 80.9377 260.16 81.4195C259.742 81.9221 259.495 82.5464 259.46 83.1995C259.442 88.0363 259.965 92.8595 261.02 97.5795ZM261.62 82.9595C264.78 81.9795 273.76 81.5995 276.62 82.9595C277.6 85.5595 278.12 94.4995 276.94 96.5795C275.08 97.0595 263.74 97.0595 261.84 97.0795C261.76 95.5195 260.84 87.0995 261.62 82.9595ZM307.78 81.1195C310.98 76.3995 313.78 72.1395 313.88 71.9395C313.98 71.7395 312.52 69.9395 311.66 71.2195C305.54 80.6395 306.38 79.7395 305.94 79.5795C302.42 78.2995 291.06 78.7395 289.28 80.3995C288.08 81.5195 288.54 85.5795 288.68 87.3195C287.4 86.5995 286.42 86.0795 286.06 85.9395C285.14 85.5795 285.2 86.4795 285.7 86.7995L288.82 88.7995C289.073 91.4279 289.48 94.0392 290.04 96.6195C290.06 96.7413 290.123 96.8519 290.22 96.9293C290.315 97.0068 290.437 97.0461 290.56 97.0395C290.98 97.0395 303.92 98.2795 306.56 97.5795C310 96.6195 308.94 83.9995 307.78 81.1195ZM290.62 81.9395C295.325 80.8693 300.2 80.7806 304.94 81.6795L298 92.6195C297.3 92.2195 293.56 90.0195 290.44 88.2595C290.308 86.1719 290.368 84.0766 290.62 81.9995V81.9395ZM305.96 95.5395C304.08 96.0395 292.74 96.0395 290.84 96.0595C290.84 95.2595 290.54 92.6395 290.4 89.7395L298 94.4595C298.192 94.4806 298.387 94.4468 298.56 94.3617C298.733 94.277 298.878 94.1443 298.98 93.9795C299.62 93.1595 302.84 88.4795 306.12 83.6595C306.74 87.2595 306.94 93.8195 306 95.5395H305.96ZM226.44 52.7595C226.983 52.7675 227.515 52.6141 227.972 52.3188C228.427 52.0235 228.783 51.5995 228.998 51.101C229.212 50.6021 229.273 50.0512 229.173 49.5173C229.073 48.9839 228.818 48.4919 228.438 48.1039C228.058 47.7159 227.573 47.4493 227.042 47.3381C226.51 47.2268 225.958 47.2759 225.455 47.4792C224.952 47.6821 224.52 48.0301 224.215 48.4788C223.91 48.9275 223.743 49.457 223.74 49.9995C223.74 50.7213 224.022 51.4144 224.527 51.9304C225.032 52.4464 225.718 52.7439 226.44 52.7595Z" fill="black"/>
</svg>
